<svg xmlns="http://www.w3.org/2000/svg" viewBox="0 0 40 40"><g fill="none" fill-rule="evenodd"><path fill="#FFD799" d="M40 32.494A2.496 2.496 0 0137.502 35H30v-3.124A1.871 1.871 0 0028.125 30a1.88 1.88 0 00-1.875 1.876V35h-12.5v-3.124A1.871 1.871 0 0011.875 30 1.88 1.88 0 0010 31.876V35H2.498A2.503 2.503 0 010 32.494V7.506A2.498 2.498 0 012.501 5h34.997A2.504 2.504 0 0140 7.506v24.988z"/><path fill="#FF9300" d="M15 19.375c1.875 0 3.75 2.813 3.75 3.75 0 .938 0 1.875-.938 1.875H4.688c-.937 0-.937-.938-.937-1.875 0-.938 1.875-3.75 3.75-3.75s.938.938 3.75.938c2.813 0 1.875-.938 3.75-.938zM35 22.5v1.25H21.25V22.5H35zm0-3.75V20H21.25v-1.25H35zM11.25 10c2.071 0 3.75 1.889 3.75 4.219s-1.679 4.219-3.75 4.219c-2.071 0-3.75-1.89-3.75-4.22S9.179 10 11.25 10zM35 15v1.25H21.25V15H35zm-6.25-3.75v1.25h-7.5v-1.25h7.5z"/></g></svg>