<?xml version="1.0" standalone="no"?>
<!DOCTYPE svg PUBLIC "-//W3C//DTD SVG 20010904//EN"
 "http://www.w3.org/TR/2001/REC-SVG-20010904/DTD/svg10.dtd">
<svg version="1.0" xmlns="http://www.w3.org/2000/svg"
 width="700.000000pt" height="700.000000pt" viewBox="0 0 700.000000 700.000000"
 preserveAspectRatio="xMidYMid meet">
<metadata>
Created by potrace 1.11, written by Peter Selinger 2001-2013
</metadata>
<g transform="translate(0.000000,700.000000) scale(0.100000,-0.100000)"
fill="#000000" stroke="none">
<path d="M427 6124 c-1 -1 -22 -4 -47 -7 -174 -20 -319 -149 -364 -322 -14
-54 -16 -301 -15 -2290 0 -1396 3 -2249 10 -2280 29 -153 160 -291 319 -336
34 -9 210 -13 733 -13 l687 -1 1 292 c1 161 2 296 3 301 1 4 6 23 10 42 15 67
87 159 155 198 163 94 393 12 462 -165 21 -55 23 -73 25 -353 1 -162 3 -300 3
-305 1 -10 2180 -15 2182 -5 0 3 2 140 3 305 2 165 6 309 11 320 47 117 94
172 180 211 132 61 282 31 377 -74 80 -89 88 -131 88 -477 l0 -290 693 1 c688
1 692 1 756 23 148 52 262 179 290 326 6 31 10 884 10 2270 1 2446 4 2303 -61
2413 -56 92 -150 165 -263 203 -33 11 -575 13 -3143 14 -1707 0 -3104 0 -3105
-1z"/>
</g>
</svg>
