<svg data-name="Layer 1" xmlns="http://www.w3.org/2000/svg" viewBox="0 0 48 48"><path d="M47.08 19.64h-22.6v9.28H37.4a11.18 11.18 0 0 1-4.79 7.24l7.75 6a21.61 21.61 0 0 0 5.92-9.42 27.77 27.77 0 0 0 .8-13.13z" fill="#3e82f1"/><path d="M32.61 36.16a14.43 14.43 0 0 1-8.13 2.29h-.1a14.06 14.06 0 0 1-11.1-5.68 14.41 14.41 0 0 1-2.13-4c0-.08-.07-.16-.1-.25l-5.43 4.25L3 34.78a24.15 24.15 0 0 0 8.12 9.16A23.85 23.85 0 0 0 24.38 48h.1a22.92 22.92 0 0 0 15.88-5.81z" fill="#32a753"/><path d="M11.05 19.44l-5.43-4.21L3 13.22c-.32.65-.61 1.32-.88 2a23.86 23.86 0 0 0 0 17.54c.27.69.56 1.36.88 2l2.59-2 5.43-4.21a14.24 14.24 0 0 1 0-9.12z" fill="#f9bb00"/><path d="M24.48 0h-.1A24 24 0 0 0 3 13.22l2.59 2 5.43 4.21c0-.09.07-.17.1-.25a14.41 14.41 0 0 1 2.13-4 14.06 14.06 0 0 1 11.1-5.68h.1a13 13 0 0 1 9.17 3.58l6.87-6.78A23.09 23.09 0 0 0 24.48 0z" fill="#e74133"/></svg>