<svg width="16" height="16" xmlns="http://www.w3.org/2000/svg" xmlns:xlink="http://www.w3.org/1999/xlink">
  <defs>
    <path id="a" d="M.01.196h7.523V7.56H.01z"/>
    <path id="c" d="M.18.167h12.199V6.53H.179z"/>
    <path id="e" d="M0 .07h3.461v7.033H0z"/>
  </defs>
  <g fill="none" fill-rule="evenodd">
    <g transform="translate(8.137 6.207)">
      <mask id="b" fill="#fff">
        <use xlink:href="#a"/>
      </mask>
      <path d="M7.39.206H.01v3.03h4.219a3.651 3.651 0 0 1-1.564 2.365l2.53 1.959a7.053 7.053 0 0 0 1.933-3.076A9.064 9.064 0 0 0 7.39.196v.01z" fill="#3E82F1" mask="url(#b)"/>
    </g>
    <g transform="translate(.953 9.146)">
      <mask id="d" fill="#fff">
        <use xlink:href="#c"/>
      </mask>
      <path d="M9.848 2.662a4.714 4.714 0 0 1-2.654.748H7.16a4.592 4.592 0 0 1-3.625-1.855A4.698 4.698 0 0 1 2.841.248c0-.025-.023-.052-.033-.081L1.035 1.555.18 2.21A7.883 7.883 0 0 0 2.83 5.202a7.787 7.787 0 0 0 4.33 1.326h.033a7.484 7.484 0 0 0 5.185-1.897l-2.53-1.97z" fill="#32A753" mask="url(#d)"/>
    </g>
    <g transform="translate(.3 4.248)">
      <mask id="f" fill="#fff">
        <use xlink:href="#e"/>
      </mask>
      <path d="M3.461 2.1L1.688.725.833.07C.728.281.633.5.545.722a7.79 7.79 0 0 0 0 5.727c.088.226.183.445.288.654l.845-.654 1.773-1.374a4.649 4.649 0 0 1 0-2.978l.01.003z" fill="#F9BB00" mask="url(#f)"/>
    </g>
    <path d="M8.147 0h-.033a7.836 7.836 0 0 0-6.981 4.317l.845.653 1.774 1.375c0-.03.022-.056.032-.082a4.7 4.7 0 0 1 .696-1.306 4.591 4.591 0 0 1 3.624-1.855h.033a4.246 4.246 0 0 1 2.994 1.17l2.244-2.215A7.54 7.54 0 0 0 8.147 0" fill="#E74133"/>
  </g>
</svg>
