<svg width="16" height="16" xmlns="http://www.w3.org/2000/svg" xmlns:xlink="http://www.w3.org/1999/xlink">
  <defs>
    <path d="M164 261a4 4 0 1 1 8 0 4 4 0 1 1 0 8h-8a4 4 0 1 1 0-8zm1.146 3.854c.155.154.423.368.793.58.618.353 1.31.566 2.061.566.75 0 1.443-.213 2.06-.566.371-.212.64-.426.794-.58a.5.5 0 1 0-.708-.708 2.934 2.934 0 0 1-.582.42A3.136 3.136 0 0 1 168 265a3.136 3.136 0 0 1-1.564-.434 2.934 2.934 0 0 1-.582-.42.5.5 0 1 0-.708.708z" id="a"/>
  </defs>
  <g fill-rule="evenodd" transform="translate(-160 -255)">
    <use xlink:href="#a"/>
  </g>
</svg>
