<?xml version="1.0" encoding="UTF-8"?>
<!-- Generator: Adobe Illustrator 22.1.0, SVG Export Plug-In . SVG Version: 6.00 Build 0)  -->
<svg version="1.1" id="Layer_1" xmlns="http://www.w3.org/2000/svg" xmlns:xlink="http://www.w3.org/1999/xlink" x="0px" y="0px" viewBox="0 0 300 300" style="enable-background:new 0 0 300 300;" xml:space="preserve">
<style type="text/css">
	.st0{fill:#FFD799;}
	.st1{fill:#FF9300;}
	.st2{fill:#FFB15C;}
	.st3{fill:none;stroke:#FF9300;stroke-miterlimit:10;}
	.st4{fill:none;stroke:#FF9300;stroke-miterlimit:10;stroke-dasharray:1.581,1.581;}
	.st5{fill:none;stroke:#FF9300;stroke-miterlimit:10;stroke-dasharray:1.7954,1.7954;}
	.st6{fill:#3281EE;}
	.st7{fill:#BBD9FD;}
	.st8{fill:none;stroke:#FF9300;stroke-miterlimit:10;stroke-dasharray:2.0651,2.0651;}
	.st9{fill:none;stroke:#FF9300;stroke-miterlimit:10;stroke-dasharray:2.0373,2.0373;}
	.st10{fill:none;stroke:#FF9300;stroke-miterlimit:10;stroke-dasharray:2,2;}
	.st11{opacity:0.56;}
	.st12{fill:none;stroke:#3281EE;stroke-miterlimit:10;stroke-dasharray:2.0801,2.0801;}
	.st13{fill:none;stroke:#3281EE;stroke-miterlimit:10;stroke-dasharray:1.9792,1.9792;}
	.st14{fill:#BBD9FD;stroke:#3281EE;stroke-miterlimit:10;stroke-dasharray:2,2;}
	.st15{fill:none;stroke:#3281EE;stroke-miterlimit:10;stroke-dasharray:2,2;}
	.st16{fill:#B7F6F7;}
	.st17{fill:#FFB15C;stroke:#FF9300;stroke-miterlimit:10;stroke-dasharray:2,2;}
	.st18{fill:none;stroke:#FFFFFF;stroke-width:2;stroke-linecap:round;stroke-linejoin:round;}
	.st19{fill:#FDD5D5;}
	.st20{fill:#F52D2D;}
	.st21{filter:url(#Adobe_OpacityMaskFilter);}
	.st22{fill:#FFFFFF;}
	.st23{mask:url(#mask-2_1_);fill:#3E82F1;}
	.st24{filter:url(#Adobe_OpacityMaskFilter_1_);}
	.st25{mask:url(#mask-4_1_);fill:#32A753;}
	.st26{filter:url(#Adobe_OpacityMaskFilter_2_);}
	.st27{mask:url(#mask-6_1_);fill:#F9BB00;}
	.st28{fill:#E74133;}
</style>
<g>
	<g>
		<path class="st7" d="M69.6,270.5c6.1,2.8,21.8,5.1,34.5,6.1c34.6,2.6,82.8,1.2,103.3-3.6c20.6-4.8,21.5-12.1-30.9-15.7    c-44.6-3.1-96.7,1.3-107.9,7.8C65.6,266.9,65.8,268.8,69.6,270.5z"/>
		<path class="st0" d="M210.8,212.8c0.1-5.6,0-11.3,0-16.9c0.1-5.6,0.1-11.3,0-16.9c-0.1-9.7,0.4-19.4-0.2-29.1    c-0.2-2.4-1.1-3.8-2.4-4.7c-0.2-0.2-1-0.5-1.8-0.8c-0.7-0.3-1.7-0.7-3.5-0.9c-7.5-0.7-33.8-0.7-43.6-0.5    c-10.7-0.2-56.3-0.3-68.1,0.7c-2.4,0.2-4.9,0.6-6.9,2.9c-2,2.4-2.1,5-2.2,7.3c-0.4,10.3-0.5,19.9-0.5,30.2c0,3.2,0,7.1,0,11.2h0    c0,0.2,0,0.4,0,0.6c0,0.2,0,0.4,0,0.6h0c0,4.2,0,8,0,11.2c-0.1,10.3,0.1,19.9,0.5,30.2c0.1,2.3,0.2,5,2.2,7.3    c2,2.3,4.5,2.7,6.9,2.9c1.8,0.2,4.5,0.3,7.7,0.4c-0.1-3.5-0.2,1.6-0.1-4.8c0.1-7.6,11.9-7.3,11.8,0.3c-0.1,6.4,0,1.2,0.1,4.7    c5.6,0.1,11.8,0.1,17.8,0.1c-0.1-3.6-0.2,1.5-0.1-5.2c0.1-7.6,11.9-7.3,11.8,0.3c-0.1,6.5,0,1.3,0.1,4.9c5.8,0,11,0,14.8-0.1    c-0.1-3.6-0.2,1.5-0.1-5.1c0.1-7.6,11.9-7.3,11.8,0.3c-0.1,6.5,0,1.3,0.1,4.8c4.4,0,9.6,0,14.8,0c-0.1-3.6-0.2,1.5-0.1-5.2    c0.1-7.6,11.9-7.3,11.8,0.3c-0.1,6.4,0,1.2,0.1,4.7c4-0.1,7.4-0.2,9.3-0.4c1.8-0.2,2.7-0.6,3.5-0.9c0.8-0.3,1.5-0.7,1.8-0.8    c1.3-0.9,2.3-2.3,2.4-4.7C211.2,232.2,210.6,222.5,210.8,212.8z"/>
		<path class="st6" d="M134.4,221.4c-0.1-0.6,0.3-1.1,0.9-1.1h21.8c0.6,0,1,0.5,0.9,1.1c0,0-0.9,10.9-11.8,10.9    C135.3,232.3,134.4,221.4,134.4,221.4z"/>
		<path class="st6" d="M134.1,218.7c-1.2,0-2.1-1-2.1-2.1c-0.1-2.2-1.6-2.5-2.5-2.5c-2.4,0-2.6,1.9-2.6,2.5c0,1.2-1,2.1-2.1,2.1    s-2.1-1-2.1-2.1c0-2.7,1.8-6.8,6.8-6.8c5,0,6.8,4.1,6.8,6.8C136.2,217.8,135.3,218.7,134.1,218.7z"/>
		<path class="st6" d="M167.7,218.7c-1.2,0-2.1-1-2.1-2.1c-0.1-2.2-1.6-2.5-2.5-2.5c-0.6,0-2.5,0.2-2.5,2.5c0,1.2-1,2.1-2.1,2.1    c-1.2,0-2.1-1-2.1-2.1c0-2.7,1.8-6.8,6.8-6.8c5,0,6.8,4.1,6.8,6.8C169.8,217.8,168.9,218.7,167.7,218.7z"/>
		<g>
			<g>
				<g class="st11">
					<g>
						<ellipse class="st7" cx="113.4" cy="167.2" rx="10.6" ry="11.8"/>
						<path class="st6" d="M113.6,180h-0.1c-1.4,0-2.9-0.3-4.2-0.9l0.8-1.7c1.1,0.5,2.2,0.7,3.4,0.7L113.6,180z M117.7,179.1        l-0.8-1.7c1.1-0.5,2-1.2,2.9-2l1.3,1.3C120.2,177.7,119,178.5,117.7,179.1z M105.7,176.8c-1-1-1.8-2.1-2.4-3.4l1.7-0.8        c0.5,1.1,1.2,2.1,2.1,2.9L105.7,176.8z M123.6,173.2l-1.7-0.8c0.5-1.1,0.9-2.2,1-3.5l1.9,0.3        C124.6,170.6,124.2,171.9,123.6,173.2z M102.1,169.3c-0.1-0.7-0.2-1.4-0.2-2.1c0-0.7,0-1.4,0.1-2l1.9,0.3        c-0.1,0.6-0.1,1.2-0.1,1.8c0,0.6,0,1.2,0.1,1.8L102.1,169.3z M122.9,165.3c-0.2-1.2-0.6-2.4-1.1-3.4l1.7-0.8        c0.6,1.2,1,2.6,1.3,4L122.9,165.3z M105,162l-1.7-0.8c0.6-1.3,1.4-2.4,2.4-3.4l1.3,1.3C106.2,159.9,105.5,160.9,105,162z         M119.7,159c-0.9-0.9-1.9-1.5-2.9-2l0.7-1.7c1.3,0.5,2.5,1.3,3.5,2.4L119.7,159z M109.9,157.1l-0.8-1.7        c1.3-0.6,2.7-0.9,4.2-0.9l0,1.9C112.2,156.3,111,156.6,109.9,157.1z"/>
					</g>
					<g>
						<path class="st7" d="M92.3,192.2c0-2.6,5.3-10.5,10.6-10.5s2.6,2.6,10.6,2.6s5.3-2.6,10.6-2.6s10.6,7.9,10.6,10.5        c0,2.6,0,5.3-2.6,5.3h-37C92.3,197.5,92.3,194.9,92.3,192.2z"/>
						<path class="st6" d="M131.9,198.4h-2.6v-1.9h2.6c0.3,0,0.5,0,0.7-0.1l0.7,1.7C133,198.4,132.5,198.4,131.9,198.4z         M125.6,198.4h-3.7v-1.9h3.7V198.4z M118.1,198.4h-3.7v-1.9h3.7V198.4z M110.7,198.4H107v-1.9h3.7V198.4z M103.2,198.4h-3.7        v-1.9h3.7V198.4z M95.8,198.4h-0.8c-1.5,0-2.6-0.7-3.1-2l1.8-0.7c0.2,0.5,0.5,0.9,1.4,0.9h0.8V198.4z M135.5,194.2l-1.9-0.1        c0-0.6,0-1.2,0-1.8c0-0.2,0-0.6-0.4-1.4l1.7-0.7c0.3,0.8,0.5,1.6,0.5,2.1C135.5,192.9,135.5,193.6,135.5,194.2z M91.3,192.4        v-0.1c0-1.3,0.9-3,1.4-3.9l1.6,0.9c-0.9,1.5-1.2,2.5-1.2,3L91.3,192.4z M131.5,187.8c-0.7-1-1.5-1.9-2.3-2.6l1.3-1.4        c0.9,0.8,1.8,1.8,2.6,2.9L131.5,187.8z M96.5,186.4l-1.4-1.2c0.9-1.1,1.9-1.9,2.9-2.6l1.1,1.5        C98.2,184.7,97.3,185.5,96.5,186.4z M112.5,185.3c-1.6,0-2.9-0.2-3.9-0.5l0.6-1.8c0.8,0.3,2,0.4,3.4,0.5L112.5,185.3z         M116.3,185.1l-0.2-1.9c1.7-0.2,2.5-0.6,3.1-1l1,1.6C119.4,184.3,118.4,184.9,116.3,185.1z M126.3,183.2        c-1.1-0.5-2.3-0.6-3.2-0.5l-0.1-1.9c1.1-0.1,2.7,0.1,4.1,0.7L126.3,183.2z M105.2,183c-0.6-0.2-1.3-0.3-2.4-0.3        c-0.3,0-0.5,0-0.8,0.1l-0.3-1.8c0.4-0.1,0.7-0.1,1.1-0.1c1.3,0,2.2,0.1,3.1,0.5L105.2,183z"/>
					</g>
				</g>
				<g class="st11">
					<g>
						<path class="st7" d="M174.3,162.1c-11.2-0.4-13.5,0.2-24.7,0.3c-4.6,0-4.5-7.2,0.1-7.2c11.2,0,13.6-0.7,24.7-0.3        C179.1,155.1,179,162.3,174.3,162.1z"/>
						<path class="st6" d="M149.6,163.3c-0.7,0-1.4-0.1-2-0.4l0.8-1.7c0.3,0.2,0.7,0.2,1.1,0.2l2.2,0l0,1.9L149.6,163.3z         M155.5,163.2l0-1.9c1.4,0,2.6-0.1,3.8-0.1l0.1,1.9C158.2,163.2,156.9,163.2,155.5,163.2z M174.3,163        c-1.4-0.1-2.6-0.1-3.7-0.1l0-1.9c1.1,0,2.4,0.1,3.8,0.1L174.3,163z M174.8,163l-0.1-1.9c1.3-0.1,1.8-1,2-1.5l1.8,0.7        C177.9,161.9,176.5,162.9,174.8,163z M163.1,163l-0.1-1.9c1.2,0,2.4-0.1,3.8-0.1l0,1.9C165.5,162.9,164.3,162.9,163.1,163z         M145.2,159l0-0.2c0-1.6,0.7-3.1,2-3.9l1,1.6c-0.7,0.5-1.1,1.3-1.1,2.3L145.2,159z M176.4,157c-0.3-0.5-0.9-1-2-1.1l-0.5,0        l0.1-1.9l0.5,0c1.5,0.1,2.8,0.7,3.5,1.9L176.4,157z M151.4,156.1l0-1.9c1.4,0,2.6,0,3.7-0.1l0,1.9        C154,156.1,152.8,156.1,151.4,156.1z M158.9,156l-0.1-1.9l3.8-0.1l0.1,1.9L158.9,156z M170.2,155.8c-0.9,0-1.8,0-2.5,0l-1.2,0        l0-1.9l1.2,0c0.8,0,1.7,0,2.6,0L170.2,155.8z"/>
					</g>
					<g>
						<path class="st7" d="M196.6,179.8c-11.2-0.4-35.8,0.2-47,0.3c-4.6,0-4.5-7.2,0.1-7.2c11.2,0,35.8-0.7,47-0.3        C201.3,172.8,201.2,180,196.6,179.8z"/>
						<path class="st6" d="M149.6,181c-0.9,0-1.7-0.2-2.4-0.7l1-1.6c0.4,0.2,0.9,0.4,1.4,0.4l1.8,0l0,1.9L149.6,181z M155.1,181        l0-1.9l3.8,0l0,1.9L155.1,181z M162.7,180.9l0-1.9l3.8-0.1l0,1.9L162.7,180.9z M170.2,180.8l0-1.9l3.8,0l0,1.9L170.2,180.8z         M196.8,180.8C196.8,180.8,196.8,180.8,196.8,180.8l-0.2,0c-1.1,0-2.4-0.1-3.8-0.1l0-1.9c1.4,0,2.7,0.1,3.8,0.1c0,0,0,0,0,0        c1,0,1.6-0.3,2.1-1l1.6,1C199.5,180.1,198.3,180.8,196.8,180.8z M177.8,180.7l0-1.9l3.8,0l0,1.9L177.8,180.7z M189.1,180.6        l-2.4,0l-1.3,0l0-1.9l1.3,0l2.5,0L189.1,180.6z M147.1,176.4l-1.9-0.1c0.1-1.7,1-3.1,2.4-3.8l0.8,1.7        C147.7,174.5,147.2,175.3,147.1,176.4z M199,175.2c-0.2-0.5-0.7-1.4-2.1-1.6l0.2-1.9c1.7,0.2,3,1.2,3.6,2.7L199,175.2z         M151.8,173.8l0-1.9l3.8,0l0,1.9L151.8,173.8z M159.3,173.8l0-1.9l3.8-0.1l0,1.9L159.3,173.8z M166.9,173.6l0-1.9l3.8-0.1        l0,1.9L166.9,173.6z M174.5,173.5l-0.1-0.9l0-0.9l3.7,0l0,1.9L174.5,173.5z M193.2,173.5c-1.2,0-2.4,0-3.8,0l0-1.9        c1.3,0,2.6,0,3.8,0L193.2,173.5z M181.9,173.5l0-1.9l3.8,0l0,1.9L181.9,173.5z"/>
					</g>
					<g>
						<path class="st7" d="M196.6,197.5c-11.2-0.4-35.8,0.2-47,0.3c-4.6,0-4.5-7.2,0.1-7.2c11.2,0,35.8-0.7,47-0.3        C201.3,190.5,201.2,197.7,196.6,197.5z"/>
						<path class="st6" d="M149.6,198.7c-0.9,0-1.7-0.2-2.4-0.7l1-1.6c0.4,0.2,0.9,0.4,1.4,0.4l1.8,0l0,1.9L149.6,198.7z         M155.1,198.7l0-1.9l3.8,0l0,1.9L155.1,198.7z M162.7,198.6l0-1.9l3.8-0.1l0,1.9L162.7,198.6z M170.2,198.5l0-1.9l3.8,0l0,1.9        L170.2,198.5z M196.8,198.5C196.8,198.5,196.8,198.5,196.8,198.5l-0.2,0c-1.1,0-2.4-0.1-3.8-0.1l0-1.9c1.4,0,2.7,0.1,3.8,0.1        c0,0,0,0,0,0c1,0,1.6-0.3,2.1-1l1.6,1C199.5,197.8,198.3,198.5,196.8,198.5z M177.8,198.4l0-1.9l3.8,0l0,1.9L177.8,198.4z         M189.1,198.3l-2.4,0l-1.3,0l0-1.9l1.3,0l2.5,0L189.1,198.3z M147.1,194.1l-1.9-0.1c0.1-1.7,1-3.1,2.4-3.8l0.8,1.7        C147.7,192.2,147.2,193.1,147.1,194.1z M199,192.9c-0.2-0.5-0.7-1.4-2.1-1.6l0.2-1.9c1.7,0.2,3,1.2,3.6,2.7L199,192.9z         M151.8,191.5l0-1.9l3.8,0l0,1.9L151.8,191.5z M159.3,191.5l0-1.9l3.8-0.1l0,1.9L159.3,191.5z M166.9,191.3l0-1.9l3.8-0.1        l0,1.9L166.9,191.3z M174.5,191.2l-0.1-0.9l0-0.9l3.7,0l0,1.9L174.5,191.2z M193.2,191.2c-1.2,0-2.4,0-3.8,0l0-1.9        c1.3,0,2.6,0,3.8,0L193.2,191.2z M181.9,191.2l0-1.9l3.8,0l0,1.9L181.9,191.2z"/>
					</g>
				</g>
			</g>
			<g>
				<path class="st6" d="M113.6,180h-0.1c-1.4,0-2.9-0.3-4.2-0.9l0.8-1.7c1.1,0.5,2.2,0.7,3.4,0.7L113.6,180z M117.7,179.1l-0.8-1.7      c1.1-0.5,2-1.2,2.9-2l1.3,1.3C120.2,177.7,119,178.5,117.7,179.1z M105.7,176.8c-1-1-1.8-2.1-2.4-3.4l1.7-0.8      c0.5,1.1,1.2,2.1,2.1,2.9L105.7,176.8z M123.6,173.2l-1.7-0.8c0.5-1.1,0.9-2.2,1-3.5l1.9,0.3      C124.6,170.6,124.2,171.9,123.6,173.2z M102.1,169.3c-0.1-0.7-0.2-1.4-0.2-2.1c0-0.7,0-1.4,0.1-2l1.9,0.3      c-0.1,0.6-0.1,1.2-0.1,1.8c0,0.6,0,1.2,0.1,1.8L102.1,169.3z M122.9,165.3c-0.2-1.2-0.6-2.4-1.1-3.4l1.7-0.8      c0.6,1.2,1,2.6,1.3,4L122.9,165.3z M105,162l-1.7-0.8c0.6-1.3,1.4-2.4,2.4-3.4l1.3,1.3C106.2,159.9,105.5,160.9,105,162z       M119.7,159c-0.9-0.9-1.9-1.5-2.9-2l0.7-1.7c1.3,0.5,2.5,1.3,3.5,2.4L119.7,159z M109.9,157.1l-0.8-1.7c1.3-0.6,2.7-0.9,4.2-0.9      l0,1.9C112.2,156.3,111,156.6,109.9,157.1z"/>
				<path class="st6" d="M131.9,198.4h-2.6v-1.9h2.6c0.3,0,0.5,0,0.7-0.1l0.7,1.7C133,198.4,132.5,198.4,131.9,198.4z M125.6,198.4      h-3.7v-1.9h3.7V198.4z M118.1,198.4h-3.7v-1.9h3.7V198.4z M110.7,198.4H107v-1.9h3.7V198.4z M103.2,198.4h-3.7v-1.9h3.7V198.4z       M95.8,198.4h-0.8c-1.5,0-2.6-0.7-3.1-2l1.8-0.7c0.2,0.5,0.5,0.9,1.4,0.9h0.8V198.4z M135.5,194.2l-1.9-0.1c0-0.6,0-1.2,0-1.8      c0-0.2,0-0.6-0.4-1.4l1.7-0.7c0.3,0.8,0.5,1.6,0.5,2.1C135.5,192.9,135.5,193.6,135.5,194.2z M91.3,192.4v-0.1      c0-1.3,0.9-3,1.4-3.9l1.6,0.9c-0.9,1.5-1.2,2.5-1.2,3L91.3,192.4z M131.5,187.8c-0.7-1-1.5-1.9-2.3-2.6l1.3-1.4      c0.9,0.8,1.8,1.8,2.6,2.9L131.5,187.8z M96.5,186.4l-1.4-1.2c0.9-1.1,1.9-1.9,2.9-2.6l1.1,1.5C98.2,184.7,97.3,185.5,96.5,186.4      z M112.5,185.3c-1.6,0-2.9-0.2-3.9-0.5l0.6-1.8c0.8,0.3,2,0.4,3.4,0.5L112.5,185.3z M116.3,185.1l-0.2-1.9      c1.7-0.2,2.5-0.6,3.1-1l1,1.6C119.4,184.3,118.4,184.9,116.3,185.1z M126.3,183.2c-1.1-0.5-2.3-0.6-3.2-0.5l-0.1-1.9      c1.1-0.1,2.7,0.1,4.1,0.7L126.3,183.2z M105.2,183c-0.6-0.2-1.3-0.3-2.4-0.3c-0.3,0-0.5,0-0.8,0.1l-0.3-1.8      c0.4-0.1,0.7-0.1,1.1-0.1c1.3,0,2.2,0.1,3.1,0.5L105.2,183z"/>
			</g>
			<g>
				<path class="st6" d="M149.6,163.3c-0.7,0-1.4-0.1-2-0.4l0.8-1.7c0.3,0.2,0.7,0.2,1.1,0.2l2.2,0l0,1.9L149.6,163.3z M155.5,163.2      l0-1.9c1.4,0,2.6-0.1,3.8-0.1l0.1,1.9C158.2,163.2,156.9,163.2,155.5,163.2z M174.3,163c-1.4-0.1-2.6-0.1-3.7-0.1l0-1.9      c1.1,0,2.4,0.1,3.8,0.1L174.3,163z M174.8,163l-0.1-1.9c1.3-0.1,1.8-1,2-1.5l1.8,0.7C177.9,161.9,176.5,162.9,174.8,163z       M163.1,163l-0.1-1.9c1.2,0,2.4-0.1,3.8-0.1l0,1.9C165.5,162.9,164.3,162.9,163.1,163z M145.2,159l0-0.2c0-1.6,0.7-3.1,2-3.9      l1,1.6c-0.7,0.5-1.1,1.3-1.1,2.3L145.2,159z M176.4,157c-0.3-0.5-0.9-1-2-1.1l-0.5,0l0.1-1.9l0.5,0c1.5,0.1,2.8,0.7,3.5,1.9      L176.4,157z M151.4,156.1l0-1.9c1.4,0,2.6,0,3.7-0.1l0,1.9C154,156.1,152.8,156.1,151.4,156.1z M158.9,156l-0.1-1.9l3.8-0.1      l0.1,1.9L158.9,156z M170.2,155.8c-0.9,0-1.8,0-2.5,0l-1.2,0l0-1.9l1.2,0c0.8,0,1.7,0,2.6,0L170.2,155.8z"/>
				<path class="st6" d="M149.6,181c-0.9,0-1.7-0.2-2.4-0.7l1-1.6c0.4,0.2,0.9,0.4,1.4,0.4l1.8,0l0,1.9L149.6,181z M155.1,181l0-1.9      l3.8,0l0,1.9L155.1,181z M162.7,180.9l0-1.9l3.8-0.1l0,1.9L162.7,180.9z M170.2,180.8l0-1.9l3.8,0l0,1.9L170.2,180.8z       M196.8,180.8C196.8,180.8,196.8,180.8,196.8,180.8l-0.2,0c-1.1,0-2.4-0.1-3.8-0.1l0-1.9c1.4,0,2.7,0.1,3.8,0.1c0,0,0,0,0,0      c1,0,1.6-0.3,2.1-1l1.6,1C199.5,180.1,198.3,180.8,196.8,180.8z M177.8,180.7l0-1.9l3.8,0l0,1.9L177.8,180.7z M189.1,180.6      l-2.4,0l-1.3,0l0-1.9l1.3,0l2.5,0L189.1,180.6z M147.1,176.4l-1.9-0.1c0.1-1.7,1-3.1,2.4-3.8l0.8,1.7      C147.7,174.5,147.2,175.3,147.1,176.4z M199,175.2c-0.2-0.5-0.7-1.4-2.1-1.6l0.2-1.9c1.7,0.2,3,1.2,3.6,2.7L199,175.2z       M151.8,173.8l0-1.9l3.8,0l0,1.9L151.8,173.8z M159.3,173.8l0-1.9l3.8-0.1l0,1.9L159.3,173.8z M166.9,173.6l0-1.9l3.8-0.1l0,1.9      L166.9,173.6z M174.5,173.5l-0.1-0.9l0-0.9l3.7,0l0,1.9L174.5,173.5z M193.2,173.5c-1.2,0-2.4,0-3.8,0l0-1.9c1.3,0,2.6,0,3.8,0      L193.2,173.5z M181.9,173.5l0-1.9l3.8,0l0,1.9L181.9,173.5z"/>
				<path class="st6" d="M149.6,198.7c-0.9,0-1.7-0.2-2.4-0.7l1-1.6c0.4,0.2,0.9,0.4,1.4,0.4l1.8,0l0,1.9L149.6,198.7z M155.1,198.7      l0-1.9l3.8,0l0,1.9L155.1,198.7z M162.7,198.6l0-1.9l3.8-0.1l0,1.9L162.7,198.6z M170.2,198.5l0-1.9l3.8,0l0,1.9L170.2,198.5z       M196.8,198.5C196.8,198.5,196.8,198.5,196.8,198.5l-0.2,0c-1.1,0-2.4-0.1-3.8-0.1l0-1.9c1.4,0,2.7,0.1,3.8,0.1c0,0,0,0,0,0      c1,0,1.6-0.3,2.1-1l1.6,1C199.5,197.8,198.3,198.5,196.8,198.5z M177.8,198.4l0-1.9l3.8,0l0,1.9L177.8,198.4z M189.1,198.3      l-2.4,0l-1.3,0l0-1.9l1.3,0l2.5,0L189.1,198.3z M147.1,194.1l-1.9-0.1c0.1-1.7,1-3.1,2.4-3.8l0.8,1.7      C147.7,192.2,147.2,193.1,147.1,194.1z M199,192.9c-0.2-0.5-0.7-1.4-2.1-1.6l0.2-1.9c1.7,0.2,3,1.2,3.6,2.7L199,192.9z       M151.8,191.5l0-1.9l3.8,0l0,1.9L151.8,191.5z M159.3,191.5l0-1.9l3.8-0.1l0,1.9L159.3,191.5z M166.9,191.3l0-1.9l3.8-0.1l0,1.9      L166.9,191.3z M174.5,191.2l-0.1-0.9l0-0.9l3.7,0l0,1.9L174.5,191.2z M193.2,191.2c-1.2,0-2.4,0-3.8,0l0-1.9c1.3,0,2.6,0,3.8,0      L193.2,191.2z M181.9,191.2l0-1.9l3.8,0l0,1.9L181.9,191.2z"/>
			</g>
		</g>
	</g>
	<path class="st7" d="M182.9,114.4c0.1,0.5,2.6,11.9,3.8,16.6c0.5,1.9,1.5,2,1.9,1.4c2.5-3.1,5-6.2,7-9.6c1.4-1.8,2.6-3.8,4-5.7   c1.8-2.6-0.8-4.6-2.4-2.1c-2.1,3.3-4.4,6.5-6.6,9.8c0-0.2,0.1-0.4,0.1-0.6c0.8-4.4,3-8.5,5.3-12.3c2.6-4.2,5.8-8,9.4-11.3   c5.5-5,11.9-8.9,18.9-11.4c2.5-0.9,4.9-1.4,5.8-1.6c0.4-0.1,0.4-0.8-0.2-1.5c-2.9-2.7-7.9-0.6-11.1,0.6c-4.6,1.8-8.9,4.4-12.7,7.5   c-1,0.8-2,1.7-3,2.6c-0.6,0.5-1.2,1-1.7,1.5c-7.2,6.4-14.4,16.4-12.4,26.5c-0.3-1-0.6-1.9-0.9-2.9c-0.9-2.9-1.8-5.8-2.7-8.8   C185,111.6,182.4,111.6,182.9,114.4z"/>
	<path class="st7" d="M108,116.8c-0.9,2.9-1.8,5.8-2.7,8.8c-0.3,1-0.6,1.9-0.9,2.9c2-10.1-5.2-20.1-12.4-26.5   c-0.6-0.5-1.1-1-1.7-1.5c-1-0.9-1.9-1.8-3-2.6c-3.8-3.1-8.1-5.7-12.7-7.5c-3.2-1.3-8.2-3.3-11.1-0.6c-0.7,0.7-0.6,1.4-0.2,1.5   c0.9,0.2,3.3,0.6,5.8,1.6c7,2.5,13.4,6.4,18.9,11.4c3.6,3.3,6.8,7.1,9.4,11.3c2.4,3.7,4.5,7.9,5.3,12.3c0,0.2,0.1,0.4,0.1,0.7   c-2.2-3.3-4.5-6.4-6.6-9.8c-1.6-2.5-4.2-0.5-2.4,2.1c1.3,1.9,2.6,3.8,4,5.7c2,3.4,4.5,6.5,7,9.6c0.4,0.5,1.4,0.5,1.9-1.4   c1.2-4.7,3.8-16.1,3.8-16.6C111,115.2,108.4,115.2,108,116.8z"/>
	<path class="st7" d="M152.7,111.7c-1.4,2.2-2.8,4.4-4.2,6.6c-0.5,0.7-0.9,1.4-1.4,2.2c2.3-4.6,1.7-35.2,0.8-40   c-0.6-3.5-3.3-3.2-3.4,1.1c-0.1,3.5,1.7,34.4,1.4,38c0,0.2-0.1,0.4-0.1,0.5c-1.1-2.9-2.3-5.8-3.3-8.7c-0.7-2.2-3.4-1-2.5,1.3   c0.7,1.7,1.3,3.4,2,5.1c0.9,3,2.3,5.8,3.7,8.7c0.2,0.5,1,0.6,1.9-0.9c2.1-3.5,6.7-12.2,6.9-12.6   C155.6,110.9,153.4,110.5,152.7,111.7z"/>
	<g id="icons_x2F_16_x2F_connect-apple_1_">
		<path id="Shape_1_" d="M45.5,68.9c2.7,6.8,9.4,6.8,9.5,6.8c0,0.2,0.3,3.6-0.7,7.6c-0.8,3.4-1.7,6.9-4.8,8.1    c-3,1.2-4.6-0.3-8.1,1.1c-3.4,1.3-3.8,3.4-6.6,4.6c-2.9,1.2-6.3-1-9.3-3c-6-4.1-12.8-13.1-11.5-21.5c0.7-4.2,3.3-7.7,7.1-9.2    c2.9-1.2,6.4-0.2,8.1-0.9c1.8-0.7,4.2-4.4,7.8-5.3c1.5-0.5,5.8-1.5,9.9,1.3C46.9,58.7,43.2,63.2,45.5,68.9 M33.4,54.4    c0.8-2.5,0.9-5.5-0.4-8c-2.2,1-4.4,3.4-5.3,5.9c-0.8,2.2-1,5.4,0.3,7.8C30.6,59.3,32.6,56.9,33.4,54.4"/>
	</g>
	<g id="icons_x2F_16_x2F_connect-google_1_">
		<g id="Page-1_1_" transform="translate(0.300000, 0.000000)">
			<g id="Group-3_1_" transform="translate(7.836735, 6.206988)">
				<defs>
					<filter id="Adobe_OpacityMaskFilter" filterUnits="userSpaceOnUse" x="253.8" y="60.2" width="24.1" height="25.5">
						<feColorMatrix type="matrix" values="1 0 0 0 0  0 1 0 0 0  0 0 1 0 0  0 0 0 1 0"/>
					</filter>
				</defs>
				<mask maskUnits="userSpaceOnUse" x="253.8" y="60.2" width="24.1" height="25.5" id="mask-2_1_">
					<g class="st21">
						<polygon id="path-1_4_" class="st22" points="255.9,60.2 278.4,65.4 273.3,87.4 250.8,82.1       "/>
					</g>
				</mask>
				<path id="Fill-1_1_" class="st23" d="M277.9,65.3l-22-5.1l-2.1,9l12.6,2.9c-1.2,2.8-3.5,4.9-6.3,6l6.2,7.6      c3.3-1.9,6-4.6,7.9-7.8C276.4,74.1,277.7,69.8,277.9,65.3L277.9,65.3z"/>
			</g>
			<g id="Group-6_1_" transform="translate(0.653061, 9.145763)">
				<defs>
					<filter id="Adobe_OpacityMaskFilter_1_" filterUnits="userSpaceOnUse" x="238.8" y="62.9" width="34.7" height="22.8">
						<feColorMatrix type="matrix" values="1 0 0 0 0  0 1 0 0 0  0 0 1 0 0  0 0 0 1 0"/>
					</filter>
				</defs>
				<mask maskUnits="userSpaceOnUse" x="238.8" y="62.9" width="34.7" height="22.8" id="mask-4_1_">
					<g class="st24">
						<polygon id="path-3_1_" class="st22" points="240.2,61 276.6,69.5 272.1,88.5 235.8,80       "/>
					</g>
				</mask>
				<path id="Fill-4_1_" class="st25" d="M267.3,75.2c-2.7,1-5.6,1.1-8.4,0.4l-0.1,0c-4.3-1.1-7.8-4-9.5-8.1c-0.6-1.4-1-2.9-1.2-4.4      c0-0.1,0-0.2,0-0.3l-6.3,2.9l-3,1.4c1,4,3,7.7,5.8,10.8c3.2,3.5,7.4,5.9,12,7l0.1,0c5.7,1.5,11.7,0.7,16.8-2.1L267.3,75.2z"/>
			</g>
			<g id="Group-9_1_" transform="translate(0.000000, 4.247804)">
				<defs>
					<filter id="Adobe_OpacityMaskFilter_2_" filterUnits="userSpaceOnUse" x="238.8" y="51" width="12" height="21">
						<feColorMatrix type="matrix" values="1 0 0 0 0  0 1 0 0 0  0 0 1 0 0  0 0 0 1 0"/>
					</filter>
				</defs>
				<mask maskUnits="userSpaceOnUse" x="238.8" y="51" width="12" height="21" id="mask-6_1_">
					<g class="st26">
						<polygon id="path-5_1_" class="st22" points="241.8,50.5 252.2,52.9 247.3,73.8 236.9,71.4       "/>
					</g>
				</mask>
				<path id="Fill-7_1_" class="st27" d="M250.7,58.9l-4.3-5.3l-2.1-2.6c-0.5,0.6-0.9,1.1-1.3,1.7c-3.4,5-4.9,11.1-4,17.1      c0.1,0.7,0.2,1.5,0.4,2.1l3-1.4l6.2-2.9C248.3,64.7,249.1,61.6,250.7,58.9L250.7,58.9z"/>
			</g>
			<path id="Fill-10_1_" class="st28" d="M268.2,47.3L268.2,47.3c-8.9-2.1-18.1,1-23.9,8l2.1,2.5l4.3,5.3c0-0.1,0.1-0.1,0.2-0.2     c0.8-1.3,1.8-2.4,3-3.4c3.3-2.8,7.8-3.9,12.1-3l0.1,0c3.3,0.7,6.2,2.7,8.1,5.6l8.2-5C279.1,52.1,274,48.6,268.2,47.3"/>
		</g>
	</g>
	<g id="icons_x2F_16_x2F_team_1_">
		<g id="Mask_1_">
			<path id="path-1_3_" class="st6" d="M155.7,40.8c-2.6-1.3-4.9-4.9-4.9-8.9c0-5.6,3.6-9.9,8.2-9.9c4.6,0,8.2,4.3,8.2,9.9     c0,3.9-2,7.6-4.9,9.2v3.9l3.6,2c1.6,0.7,3.6,2.6,4.3,4.3l0.3,0.7c0.7,1.6,0,3-1.6,3h-19.7c-1.6,0-2.6-1.3-1.6-3l0.3-0.7     c0.7-1.6,2.6-3.6,4.3-4.3l3.6-2V40.8z M134.3,51c-3.9-1.6-6.6-5.9-6.6-10.9c0-6.2,4.6-11.5,9.9-11.5s9.9,5.3,9.9,11.5     c0,4.9-2.6,9.2-6.6,10.9V55l6.9,2.3c1.6,0.7,3.6,2.3,4.6,3.9l0.3,0.7c0.7,1.6,0,3-1.6,3h-26.3c-1.6,0-2.6-1.3-1.6-3l0.3-0.7     c0.7-1.6,3-3.3,4.6-3.9l6.2-2.3V51z"/>
		</g>
	</g>
</g>
</svg>