<svg id="Layer_1" data-name="Layer 1" xmlns="http://www.w3.org/2000/svg" viewBox="0 0 160 160"><defs><style>.cls-1{fill:#bbd9fd;}.cls-2{fill:#ffd799;}.cls-3{fill:#3281ee;}.cls-4{opacity:0.56;}</style></defs><title>empty-contact-list</title><path class="cls-1" d="M6.06,140.1c6.12,2.76,21.82,5.14,34.48,6.1,34.56,2.61,82.85,1.22,103.32-3.56S165.4,130.52,113,126.89c-44.65-3.09-96.75,1.28-107.89,7.81C2.09,136.45,2.25,138.4,6.06,140.1Z"/><path class="cls-2" d="M147.23,82.41c.06-5.63,0-11.26,0-16.89s.09-11.26,0-16.9c-.11-9.69.41-19.38-.25-29.07a5.59,5.59,0,0,0-2.42-4.68A15.73,15.73,0,0,0,142.8,14a10.36,10.36,0,0,0-3.46-.9c-7.49-.74-33.85-.7-43.6-.49-10.69-.17-56.29-.33-68.11.67-2.45.21-4.93.62-6.91,2.9s-2.13,5-2.23,7.32C18.09,33.79,18,43.44,18,53.71c0,3.19,0,7.06,0,11.23h0c0,.19,0,.38,0,.58s0,.38,0,.58h0c0,4.16,0,8,0,11.22-.07,10.28.06,19.93.46,30.2.1,2.33.19,5,2.23,7.32s4.46,2.69,6.91,2.9c1.84.15,4.5.28,7.72.38-.1-3.53-.18,1.64-.1-4.8.09-7.59,11.93-7.27,11.83.34-.07,6.39,0,1.2.1,4.72,5.63.08,11.78.12,17.81.14-.1-3.62-.19,1.49-.11-5.2.09-7.59,11.93-7.27,11.83.34-.08,6.48,0,1.32.1,4.87,5.81,0,11,0,14.77-.07-.1-3.61-.19,1.51-.11-5.14.09-7.59,11.93-7.27,11.83.34-.08,6.47,0,1.3.1,4.85,4.41,0,9.63,0,14.77,0-.1-3.62-.19,1.48-.1-5.2.09-7.59,11.92-7.27,11.83.34-.08,6.38,0,1.18.09,4.69,4-.09,7.35-.23,9.35-.43a10.61,10.61,0,0,0,3.46-.9,15.73,15.73,0,0,0,1.76-.85,5.59,5.59,0,0,0,2.42-4.68C147.64,101.8,147.12,92.11,147.23,82.41Z"/><path class="cls-3" d="M70.84,100.83a.89.89,0,0,0,.92,1.07H93.57a.9.9,0,0,0,.92-1.09s-.92-10.87-11.82-10.87S70.84,100.83,70.84,100.83Z"/><path class="cls-3" d="M70.55,88.31a2.14,2.14,0,0,1-2.14-2.14,2.34,2.34,0,0,0-2.55-2.54,2.36,2.36,0,0,0-2.55,2.54,2.15,2.15,0,0,1-4.29,0,6.84,6.84,0,0,1,13.68,0A2.14,2.14,0,0,1,70.55,88.31Z"/><path class="cls-3" d="M104.17,88.31A2.14,2.14,0,0,1,102,86.17a2.55,2.55,0,0,0-5.09,0,2.15,2.15,0,0,1-4.29,0,6.84,6.84,0,0,1,13.67,0A2.14,2.14,0,0,1,104.17,88.31Z"/><g class="cls-4"><ellipse class="cls-1" cx="49.89" cy="36.82" rx="10.57" ry="11.85"/><path class="cls-3" d="M50,49.61h-.13a10.58,10.58,0,0,1-4.18-.87L46.46,47a8.64,8.64,0,0,0,3.43.71Zm4.19-.93L53.43,47a9.61,9.61,0,0,0,2.9-2l1.34,1.31A11.46,11.46,0,0,1,54.21,48.68Zm-12-2.33a12.52,12.52,0,0,1-2.44-3.42l1.69-.83A10.61,10.61,0,0,0,43.54,45Zm17.86-3.56-1.7-.8a12,12,0,0,0,1-3.46l1.87.26A13.72,13.72,0,0,1,60.07,42.79ZM38.53,38.94a14.8,14.8,0,0,1-.15-2.12,15.19,15.19,0,0,1,.14-2l1.87.26a11.66,11.66,0,0,0-.13,1.78,12.45,12.45,0,0,0,.14,1.84Zm20.84-4a11.9,11.9,0,0,0-1.08-3.44L60,30.65a13.6,13.6,0,0,1,1.26,4ZM41.43,31.59l-1.69-.81a12.48,12.48,0,0,1,2.41-3.43l1.34,1.31A11.13,11.13,0,0,0,41.43,31.59Zm14.77-3a9.47,9.47,0,0,0-2.94-2L54,24.87a11.38,11.38,0,0,1,3.52,2.37Zm-9.8-1.94-.76-1.71a10.39,10.39,0,0,1,4.17-.9l0,1.88A8.49,8.49,0,0,0,46.4,26.64Z"/><path class="cls-1" d="M28.75,61.84C28.75,59.2,34,51.3,39.32,51.3S42,53.94,49.89,53.94s5.28-2.64,10.57-2.64S71,59.2,71,61.84s0,5.26-2.64,5.26h-37C28.75,67.1,28.75,64.47,28.75,61.84Z"/><path class="cls-3" d="M68.39,68h-2.6V66.16h2.6a2,2,0,0,0,.73-.12l.74,1.72A3.6,3.6,0,0,1,68.39,68Zm-6.33,0H58.33V66.16h3.73Zm-7.45,0H50.88V66.16h3.73Zm-7.46,0H43.42V66.16h3.73Zm-7.46,0H36V66.16h3.72Zm-7.45,0h-.85A3.13,3.13,0,0,1,28.27,66L30,65.3a1.25,1.25,0,0,0,1.37.86h.85Zm39.69-4.27-1.88-.12c0-.58,0-1.2,0-1.81a4.08,4.08,0,0,0-.38-1.42l1.75-.71A5.85,5.85,0,0,1,72,61.84C72,62.5,72,63.16,71.93,63.77ZM27.81,62v-.13a9.23,9.23,0,0,1,1.42-3.93l1.63,1a7.18,7.18,0,0,0-1.17,3ZM68,57.4a18.3,18.3,0,0,0-2.34-2.65l1.28-1.38a20.36,20.36,0,0,1,2.59,2.92Zm-35-1.4-1.42-1.25a17.26,17.26,0,0,1,2.92-2.64l1.09,1.54A14.73,14.73,0,0,0,32.94,56Zm16-1.14A14.71,14.71,0,0,1,45,54.32l.56-1.79A13.11,13.11,0,0,0,49,53Zm3.86-.14-.23-1.86a6.3,6.3,0,0,0,3.08-1l1,1.56A8.21,8.21,0,0,1,52.8,54.72Zm10-1.91a6.45,6.45,0,0,0-3.16-.54l-.13-1.88a8.52,8.52,0,0,1,4.08.72Zm-21.12-.24a6.76,6.76,0,0,0-2.37-.33,5.16,5.16,0,0,0-.79.07l-.33-1.85a7,7,0,0,1,1.12-.1,8.44,8.44,0,0,1,3,.46Z"/></g><g class="cls-4"><path class="cls-1" d="M110.81,31.7c-11.19-.41-13.51.24-24.75.26-4.63,0-4.53-7.16.11-7.17,11.24,0,13.55-.67,24.74-.26C115.53,24.7,115.45,31.87,110.81,31.7Z"/><path class="cls-3" d="M86.06,32.9a4.46,4.46,0,0,1-2-.42l.8-1.69a2.78,2.78,0,0,0,1.15.23h2.16l0,1.87Zm6-.08,0-1.88c1.36,0,2.59-.07,3.75-.12l.07,1.88C94.62,32.74,93.39,32.79,92,32.82Zm18.75-.18c-1.37,0-2.61-.09-3.74-.11l0-1.88c1.15,0,2.4.06,3.78.11Zm.48,0-.1-1.87a2.21,2.21,0,0,0,2-1.48L115,30A4.08,4.08,0,0,1,111.25,32.63Zm-11.71-.06-.05-1.88c1.2,0,2.43-.06,3.78-.07V32.5C102,32.51,100.73,32.53,99.54,32.57ZM81.7,28.62v-.18a4.61,4.61,0,0,1,2-3.88l1,1.57a2.72,2.72,0,0,0-1.13,2.31Zm31.21-2.08a2.42,2.42,0,0,0-2-1.07h-.48l.06-1.88h.48a4.34,4.34,0,0,1,3.54,1.91Zm-25-.82,0-1.88c1.38,0,2.62,0,3.75-.06l0,1.88C90.49,25.69,89.25,25.71,87.86,25.72Zm7.55-.17-.07-1.88,3.77-.13.06,1.88Zm11.24-.2-2.54,0h-1.2l0-1.88h1.22c.8,0,1.65,0,2.57,0Z"/><path class="cls-1" d="M133.06,49.41c-11.19-.42-35.76.23-47,.25-4.63,0-4.53-7.15.11-7.16,11.24,0,35.81-.68,47-.26C137.78,42.41,137.71,49.58,133.06,49.41Z"/><path class="cls-3" d="M86.07,50.6a4.4,4.4,0,0,1-2.41-.66l1-1.58a2.57,2.57,0,0,0,1.39.37h1.77v1.87Zm5.55,0,0-1.88,3.77,0,0,1.87Zm7.54-.1,0-1.88,3.77,0,0,1.87Zm7.54-.11,0-1.88,3.78,0,0,1.88Zm26.54,0H133c-1.13,0-2.39-.07-3.76-.09l0-1.88c1.38,0,2.66.06,3.79.1h0a2.32,2.32,0,0,0,2.07-1l1.56,1A4.07,4.07,0,0,1,133.24,50.35Zm-19-.09,0-1.88,3.78,0v1.88Zm11.3,0h-3.76V48.33h3.77ZM83.59,46l-1.88-.11A4.44,4.44,0,0,1,84.12,42L85,43.7A2.61,2.61,0,0,0,83.59,46Zm51.84-1.2a2.39,2.39,0,0,0-2.06-1.56l.2-1.87a4.29,4.29,0,0,1,3.62,2.75ZM88.25,43.43V41.55l3.77,0,0,1.87Zm7.55-.09,0-1.87,3.77-.06,0,1.88Zm7.54-.11,0-1.88,3.77-.05,0,1.87Zm7.58-.1-.06-.94,0-.94,3.72,0,0,1.88Zm18.77,0-3.76,0V41.17l3.78,0Zm-11.28,0V41.18h3.77V43Z"/><path class="cls-1" d="M133.06,67.11c-11.19-.41-35.76.24-47,.26-4.63,0-4.53-7.15.11-7.16,11.24,0,35.81-.68,47-.26C137.78,60.12,137.71,67.29,133.06,67.11Z"/><path class="cls-3" d="M86.07,68.31a4.4,4.4,0,0,1-2.41-.66l1-1.58a2.57,2.57,0,0,0,1.39.36h1.77V68.3Zm5.55,0,0-1.88,3.77,0,0,1.88Zm7.54-.1,0-1.88,3.77-.06,0,1.88Zm7.54-.11,0-1.88,3.78-.05,0,1.88Zm26.54,0H133c-1.13,0-2.39-.07-3.76-.09l0-1.88c1.38,0,2.66,0,3.79.1h0a2.32,2.32,0,0,0,2.07-1l1.56,1A4.07,4.07,0,0,1,133.24,68.06Zm-19-.09,0-1.88,3.78,0v1.87Zm11.3,0h-3.76V66h3.77ZM83.59,63.67l-1.88-.11a4.43,4.43,0,0,1,2.41-3.83L85,61.41A2.61,2.61,0,0,0,83.59,63.67Zm51.84-1.2a2.41,2.41,0,0,0-2.06-1.57l.2-1.86a4.27,4.27,0,0,1,3.62,2.75ZM88.25,61.14V59.26l3.77,0,0,1.88Zm7.55-.09,0-1.88,3.76-.05,0,1.87Zm7.54-.11,0-1.88,3.77-.05,0,1.87Zm7.58-.1-.06-.94,0-.94,3.72,0,0,1.87Zm18.77,0-3.76,0V58.88l3.78,0Zm-11.28,0V58.89h3.77v1.87Z"/></g><path class="cls-3" d="M50,49.61h-.13a10.58,10.58,0,0,1-4.18-.87L46.46,47a8.64,8.64,0,0,0,3.43.71Zm4.19-.93L53.43,47a9.61,9.61,0,0,0,2.9-2l1.34,1.31A11.46,11.46,0,0,1,54.21,48.68Zm-12-2.33a12.52,12.52,0,0,1-2.44-3.42l1.69-.83A10.61,10.61,0,0,0,43.54,45Zm17.86-3.56-1.7-.8a12,12,0,0,0,1-3.46l1.87.26A13.72,13.72,0,0,1,60.07,42.79ZM38.53,38.94a14.8,14.8,0,0,1-.15-2.12,15.19,15.19,0,0,1,.14-2l1.87.26a11.66,11.66,0,0,0-.13,1.78,12.45,12.45,0,0,0,.14,1.84Zm20.84-4a11.9,11.9,0,0,0-1.08-3.44L60,30.65a13.6,13.6,0,0,1,1.26,4ZM41.43,31.59l-1.69-.81a12.48,12.48,0,0,1,2.41-3.43l1.34,1.31A11.13,11.13,0,0,0,41.43,31.59Zm14.77-3a9.47,9.47,0,0,0-2.94-2L54,24.87a11.38,11.38,0,0,1,3.52,2.37Zm-9.8-1.94-.76-1.71a10.39,10.39,0,0,1,4.17-.9l0,1.88A8.49,8.49,0,0,0,46.4,26.64Z"/><path class="cls-3" d="M68.39,68h-2.6V66.16h2.6a2,2,0,0,0,.73-.12l.74,1.72A3.6,3.6,0,0,1,68.39,68Zm-6.33,0H58.33V66.16h3.73Zm-7.45,0H50.88V66.16h3.73Zm-7.46,0H43.42V66.16h3.73Zm-7.46,0H36V66.16h3.72Zm-7.45,0h-.85A3.13,3.13,0,0,1,28.27,66L30,65.3a1.25,1.25,0,0,0,1.37.86h.85Zm39.69-4.27-1.88-.12c0-.58,0-1.2,0-1.81a4.08,4.08,0,0,0-.38-1.42l1.75-.71A5.85,5.85,0,0,1,72,61.84C72,62.5,72,63.16,71.93,63.77ZM27.81,62v-.13a9.23,9.23,0,0,1,1.42-3.93l1.63,1a7.18,7.18,0,0,0-1.17,3ZM68,57.4a18.3,18.3,0,0,0-2.34-2.65l1.28-1.38a20.36,20.36,0,0,1,2.59,2.92Zm-35-1.4-1.42-1.25a17.26,17.26,0,0,1,2.92-2.64l1.09,1.54A14.73,14.73,0,0,0,32.94,56Zm16-1.14A14.71,14.71,0,0,1,45,54.32l.56-1.79A13.11,13.11,0,0,0,49,53Zm3.86-.14-.23-1.86a6.3,6.3,0,0,0,3.08-1l1,1.56A8.21,8.21,0,0,1,52.8,54.72Zm10-1.91a6.45,6.45,0,0,0-3.16-.54l-.13-1.88a8.52,8.52,0,0,1,4.08.72Zm-21.12-.24a6.76,6.76,0,0,0-2.37-.33,5.16,5.16,0,0,0-.79.07l-.33-1.85a7,7,0,0,1,1.12-.1,8.44,8.44,0,0,1,3,.46Z"/><path class="cls-3" d="M86.06,32.9a4.46,4.46,0,0,1-2-.42l.8-1.69a2.78,2.78,0,0,0,1.15.23h2.16l0,1.87Zm6-.08,0-1.88c1.36,0,2.59-.07,3.75-.12l.07,1.88C94.62,32.74,93.39,32.79,92,32.82Zm18.75-.18c-1.37,0-2.61-.09-3.74-.11l0-1.88c1.15,0,2.4.06,3.78.11Zm.48,0-.1-1.87a2.21,2.21,0,0,0,2-1.48L115,30A4.08,4.08,0,0,1,111.25,32.63Zm-11.71-.06-.05-1.88c1.2,0,2.43-.06,3.78-.07V32.5C102,32.51,100.73,32.53,99.54,32.57ZM81.7,28.62v-.18a4.61,4.61,0,0,1,2-3.88l1,1.57a2.72,2.72,0,0,0-1.13,2.31Zm31.21-2.08a2.42,2.42,0,0,0-2-1.07h-.48l.06-1.88h.48a4.34,4.34,0,0,1,3.54,1.91Zm-25-.82,0-1.88c1.38,0,2.62,0,3.75-.06l0,1.88C90.49,25.69,89.25,25.71,87.86,25.72Zm7.55-.17-.07-1.88,3.77-.13.06,1.88Zm11.24-.2-2.54,0h-1.2l0-1.88h1.22c.8,0,1.65,0,2.57,0Z"/><path class="cls-3" d="M86.07,50.6a4.4,4.4,0,0,1-2.41-.66l1-1.58a2.57,2.57,0,0,0,1.39.37h1.77v1.87Zm5.55,0,0-1.88,3.77,0,0,1.87Zm7.54-.1,0-1.88,3.77,0,0,1.87Zm7.54-.11,0-1.88,3.78,0,0,1.88Zm26.54,0H133c-1.13,0-2.39-.07-3.76-.09l0-1.88c1.38,0,2.66.06,3.79.1h0a2.32,2.32,0,0,0,2.07-1l1.56,1A4.07,4.07,0,0,1,133.24,50.35Zm-19-.09,0-1.88,3.78,0v1.88Zm11.3,0h-3.76V48.33h3.77ZM83.59,46l-1.88-.11A4.44,4.44,0,0,1,84.12,42L85,43.7A2.61,2.61,0,0,0,83.59,46Zm51.84-1.2a2.39,2.39,0,0,0-2.06-1.56l.2-1.87a4.29,4.29,0,0,1,3.62,2.75ZM88.25,43.43V41.55l3.77,0,0,1.87Zm7.55-.09,0-1.87,3.77-.06,0,1.88Zm7.54-.11,0-1.88,3.77-.05,0,1.87Zm7.58-.1-.06-.94,0-.94,3.72,0,0,1.88Zm18.77,0-3.76,0V41.17l3.78,0Zm-11.28,0V41.18h3.77V43Z"/><path class="cls-3" d="M86.07,68.31a4.4,4.4,0,0,1-2.41-.66l1-1.58a2.57,2.57,0,0,0,1.39.36h1.77V68.3Zm5.55,0,0-1.88,3.77,0,0,1.88Zm7.54-.1,0-1.88,3.77-.06,0,1.88Zm7.54-.11,0-1.88,3.78-.05,0,1.88Zm26.54,0H133c-1.13,0-2.39-.07-3.76-.09l0-1.88c1.38,0,2.66,0,3.79.1h0a2.32,2.32,0,0,0,2.07-1l1.56,1A4.07,4.07,0,0,1,133.24,68.06Zm-19-.09,0-1.88,3.78,0v1.87Zm11.3,0h-3.76V66h3.77ZM83.59,63.67l-1.88-.11a4.43,4.43,0,0,1,2.41-3.83L85,61.41A2.61,2.61,0,0,0,83.59,63.67Zm51.84-1.2a2.41,2.41,0,0,0-2.06-1.57l.2-1.86a4.27,4.27,0,0,1,3.62,2.75ZM88.25,61.14V59.26l3.77,0,0,1.88Zm7.55-.09,0-1.88,3.76-.05,0,1.87Zm7.54-.11,0-1.88,3.77-.05,0,1.87Zm7.58-.1-.06-.94,0-.94,3.72,0,0,1.87Zm18.77,0-3.76,0V58.88l3.78,0Zm-11.28,0V58.89h3.77v1.87Z"/></svg>