<svg xmlns="http://www.w3.org/2000/svg" width="180" height="177" fill="none"><path fill="#1D1D1F" fill-rule="evenodd" d="M23.077 29.108c.046 5.136 4.504 6.843 4.553 6.867-.038.118-.713 2.434-2.348 4.825-1.414 2.067-2.884 4.127-5.196 4.169-2.269.042-3-1.347-5.599-1.347-2.598 0-3.408 1.305-5.56 1.39-2.231.084-3.93-2.236-5.357-4.295-2.914-4.214-5.141-11.904-2.15-17.098 1.484-2.577 4.139-4.21 7.019-4.252 2.193-.043 4.263 1.474 5.6 1.474 1.341 0 3.854-1.824 6.497-1.555 1.107.047 4.212.446 6.207 3.366-.16.1-3.704 2.163-3.666 6.456ZM18.805 16.5c1.186-1.436 1.983-3.432 1.765-5.42-1.707.069-3.773 1.14-4.999 2.573-1.096 1.269-2.057 3.3-1.798 5.25 1.902.146 3.847-.97 5.032-2.403Z" clip-rule="evenodd"/><path fill="#FBBC05" d="m179.399 34.154-13.543-.057v5.525h7.807c-1.14 3.216-4.2 5.525-7.807 5.525a8.293 8.293 0 0 1-5.86-2.427 8.29 8.29 0 0 1-1.797-9.032 8.299 8.299 0 0 1 7.657-5.116c2.112 0 4.036.796 5.498 2.1l3.906-3.907a13.743 13.743 0 0 0-9.404-3.718c-7.63 0-13.812 6.183-13.812 13.813 0 7.63 6.183 13.812 13.812 13.812 7.63 0 13.813-6.183 13.813-13.812 0-.926-.095-1.83-.27-2.706Z"/><path fill="#EA4335" d="m153.635 30.431 4.54 3.33a8.28 8.28 0 0 1 7.681-5.189c2.112 0 4.036.796 5.498 2.1l3.906-3.907a13.743 13.743 0 0 0-9.404-3.718c-5.306 0-9.906 2.995-12.22 7.384h-.001Z"/><path fill="#34A853" d="M165.856 50.672c3.567 0 6.81-1.365 9.261-3.585l-4.275-3.618a8.232 8.232 0 0 1-4.986 1.678c-3.593 0-6.642-2.29-7.791-5.487l-4.505 3.47c2.285 4.472 6.928 7.542 12.296 7.542Z"/><path fill="#4285F4" d="m179.399 34.154-13.543-.057v5.525h7.807a8.324 8.324 0 0 1-2.824 3.847h.003l4.275 3.618c-.302.272 4.552-3.32 4.552-10.227 0-.926-.095-1.83-.27-2.706Z"/><g filter="url(#a)"><path fill="#fff" d="M87.853 101.835c12.082 0 21.876 8.459 21.876 18.893 0 10.434-9.794 18.893-21.876 18.893-2.477 0-4.858-.356-7.078-1.011-2.48 1.929-6.329 3.549-11.542 4.857a.999.999 0 0 1-1.116-1.456l.373-.678c1.732-3.185 2.812-5.798 3.241-7.837-3.574-3.362-5.754-7.845-5.754-12.768 0-10.434 9.794-18.893 21.876-18.893Z"/></g><g clip-path="url(#b)"><rect width="66" height="66" x="54.871" y="89.719" fill="#fff" rx="21.797"/><rect width="66" height="66" x="54.871" y="89.719" fill="url(#c)" rx="21.797"/><g fill="#fff" filter="url(#d)"><path d="M87.85 122.752a9.28 9.28 0 1 0 0-18.562 9.282 9.282 0 0 0 0 18.562ZM106.102 135.185c-1.399-3.933-5.763-8.308-18.252-8.308-12.489 0-16.853 4.375-18.253 8.308-1.235 3.471 2.23 6.129 5.914 6.129h24.678c3.683 0 7.148-2.658 5.913-6.129Z"/></g></g><path fill="#DCEDFD" fill-rule="evenodd" d="M45.847 173.652c3.475 1.145 12.394 2.135 19.584 2.532 19.627 1.081 47.055.495 58.68-1.498 11.714-2.007 12.237-5.045-17.543-6.55-25.353-1.28-54.948.548-61.277 3.265-1.7.73-1.605 1.541.556 2.251Z" clip-rule="evenodd"/><path fill="#BBD9FD" fill-rule="evenodd" d="M117.586 74.927c.405 1.54 1.172 1.55 1.498 1.147 1.976-2.452 3.938-4.928 5.526-7.628 1.111-1.455 2.096-3 3.14-4.504 1.43-2.054-.65-3.615-1.89-1.647-1.655 2.626-3.464 5.15-5.197 7.727.021-.17.04-.342.063-.515.652-3.478 2.36-6.74 4.233-9.708 2.075-3.293 4.56-6.37 7.475-8.926 3.971-3.482 5.283-4.794 9.874-6.761 1.976-.847.608-3.861-1.907-2.865-3.65 1.446-4.425 2.155-7.47 4.63a38.884 38.884 0 0 0-2.352 2.075c-.463.372-.92.757-1.366 1.153-5.7 5.048-11.386 12.996-9.793 20.997-.21-.773-.455-1.541-.683-2.306-.69-2.323-1.454-4.62-2.15-6.94-.386-1.29-2.447-1.27-2.046.95.073.41 2.078 9.437 3.045 13.12Z" clip-rule="evenodd" opacity=".502"/><path fill="#BBD9FD" fill-rule="evenodd" d="M53.019 70.642c-.227.765-.472 1.533-.683 2.306 1.592-8-4.094-15.947-9.793-20.996-.446-.395-.902-.78-1.365-1.153a38.989 38.989 0 0 0-2.353-2.075c-3.045-2.475-4.08-3.3-6.703-5.268-4.042-3.031-6.307.9-4.382 1.92 5.038 2.67 7.23 4.359 11.582 8.345a43.683 43.683 0 0 1 7.476 8.925c1.87 2.968 3.58 6.23 4.232 9.708.022.172.042.344.062.516-1.731-2.576-3.54-5.101-5.196-7.728-1.24-1.967-3.32-.407-1.891 1.647 1.045 1.504 2.029 3.048 3.14 4.504 1.588 2.7 3.55 5.175 5.527 7.627.327.404 1.094.393 1.498-1.146.967-3.686 2.97-12.71 3.045-13.12.4-2.22-1.66-2.24-2.045-.952-.695 2.32-1.46 4.619-2.151 6.94Z" clip-rule="evenodd" opacity=".501"/><path fill="#BBD9FD" fill-rule="evenodd" d="M90.57 54.427c-1.095 1.74-2.251 3.455-3.343 5.199-.362.574-.74 1.147-1.085 1.73 1.84-3.615 1.728-14.05 1.03-17.847-.504-2.738-2.608-2.495-2.667.894-.048 2.777.914 13.43.682 16.29-.02.14-.043.28-.064.416-.871-2.3-1.813-4.57-2.607-6.898-.594-1.744-2.678-.81-1.946 1.033.536 1.347 1.013 2.718 1.614 4.036.722 2.38 1.802 4.632 2.904 6.872.182.365.823.47 1.503-.692 1.632-2.79 5.32-9.663 5.472-9.976.832-1.706-.88-2.024-1.491-1.057" clip-rule="evenodd" opacity=".502"/><path fill="#DCEDFD" d="M69.234 26v-4.534c0-.917.236-1.76.708-2.53a4.72 4.72 0 0 1 1.883-1.76 24.031 24.031 0 0 1 5.1-1.882 22.275 22.275 0 0 1 5.262-.628c1.78 0 3.535.21 5.262.628a24.03 24.03 0 0 1 5.1 1.882 4.72 4.72 0 0 1 1.882 1.76c.472.77.708 1.613.708 2.53V26H69.234Zm29.144 0v-4.857c0-1.188-.331-2.328-.992-3.42-.661-1.093-1.599-2.031-2.813-2.814 1.376.162 2.671.439 3.886.83 1.214.391 2.347.87 3.4 1.437.971.54 1.713 1.14 2.226 1.801.513.661.769 1.383.769 2.166V26h-6.476ZM82.187 13.047c-1.781 0-3.306-.634-4.574-1.902-1.269-1.268-1.903-2.793-1.903-4.574 0-1.781.635-3.306 1.903-4.574C78.88.729 80.406.095 82.187.095c1.78 0 3.305.634 4.574 1.902 1.268 1.268 1.902 2.793 1.902 4.574 0 1.78-.634 3.306-1.902 4.574-1.269 1.268-2.793 1.902-4.574 1.902Zm16.19-6.476c0 1.78-.634 3.306-1.902 4.574-1.268 1.268-2.793 1.902-4.574 1.902-.297 0-.674-.034-1.133-.1a9.928 9.928 0 0 1-1.133-.223 9.63 9.63 0 0 0 1.68-2.874 9.333 9.333 0 0 0 .586-3.28 9.333 9.333 0 0 0-.587-3.278 9.629 9.629 0 0 0-1.68-2.874 4.921 4.921 0 0 1 1.134-.263c.378-.04.755-.06 1.133-.06 1.781 0 3.306.634 4.574 1.902 1.268 1.268 1.903 2.793 1.903 4.574Z"/><defs><filter id="a" width="50.483" height="48.393" x="62.611" y="99.142" color-interpolation-filters="sRGB" filterUnits="userSpaceOnUse"><feFlood flood-opacity="0" result="BackgroundImageFix"/><feColorMatrix in="SourceAlpha" result="hardAlpha" values="0 0 0 0 0 0 0 0 0 0 0 0 0 0 0 0 0 0 127 0"/><feOffset dy=".673"/><feGaussianBlur stdDeviation="1.683"/><feComposite in2="hardAlpha" operator="out"/><feColorMatrix values="0 0 0 0 0 0 0 0 0 0 0 0 0 0 0 0 0 0 0.1 0"/><feBlend in2="BackgroundImageFix" result="effect1_dropShadow_4815_4467"/><feBlend in="SourceGraphic" in2="effect1_dropShadow_4815_4467" result="shape"/></filter><filter id="d" width="48.8" height="48.91" x="63.45" y="99.476" color-interpolation-filters="sRGB" filterUnits="userSpaceOnUse"><feFlood flood-opacity="0" result="BackgroundImageFix"/><feColorMatrix in="SourceAlpha" result="hardAlpha" values="0 0 0 0 0 0 0 0 0 0 0 0 0 0 0 0 0 0 127 0"/><feOffset dy="1.179"/><feGaussianBlur stdDeviation="2.946"/><feComposite in2="hardAlpha" operator="out"/><feColorMatrix values="0 0 0 0 0 0 0 0 0 0 0 0 0 0 0 0 0 0 0.1 0"/><feBlend in2="BackgroundImageFix" result="effect1_dropShadow_4815_4467"/><feBlend in="SourceGraphic" in2="effect1_dropShadow_4815_4467" result="shape"/></filter><linearGradient id="c" x1="66.314" x2="117.134" y1="149.794" y2="93.757" gradientUnits="userSpaceOnUse"><stop offset=".23" stop-color="#F74EA9"/><stop offset="1" stop-color="#FFB2A8"/></linearGradient><clipPath id="b"><path fill="#fff" d="M54.87 89.719h65.966v65.965H54.87z"/></clipPath></defs></svg>