<svg id="Layer_1" xmlns="http://www.w3.org/2000/svg" viewBox="0 0 300 300" enable-background="new 0 0 300 300">
  <style>
    .st6{fill:#3281ee}.st7{fill:#bbd9fd}.st11{opacity:.56}.st22{fill:#fff}
  </style>
  <path class="st7" d="M69.6 270.5c6.1 2.8 21.8 5.1 34.5 6.1 34.6 2.6 82.8 1.2 103.3-3.6 20.6-4.8 21.5-12.1-30.9-15.7-44.6-3.1-96.7 1.3-107.9 7.8-3 1.8-2.8 3.7 1 5.4z"/>
  <path d="M210.8 212.8c.1-5.6 0-11.3 0-16.9.1-5.6.1-11.3 0-16.9-.1-9.7.4-19.4-.2-29.1-.2-2.4-1.1-3.8-2.4-4.7-.2-.2-1-.5-1.8-.8-.7-.3-1.7-.7-3.5-.9-7.5-.7-33.8-.7-43.6-.5-10.7-.2-56.3-.3-68.1.7-2.4.2-4.9.6-6.9 2.9-2 2.4-2.1 5-2.2 7.3-.4 10.3-.5 19.9-.5 30.2V207.7c-.1 10.3.1 19.9.5 30.2.1 2.3.2 5 2.2 7.3s4.5 2.7 6.9 2.9c1.8.2 4.5.3 7.7.4-.1-3.5-.2 1.6-.1-4.8.1-7.6 11.9-7.3 11.8.3-.1 6.4 0 1.2.1 4.7 5.6.1 11.8.1 17.8.1-.1-3.6-.2 1.5-.1-5.2.1-7.6 11.9-7.3 11.8.3-.1 6.5 0 1.3.1 4.9 5.8 0 11 0 14.8-.1-.1-3.6-.2 1.5-.1-5.1.1-7.6 11.9-7.3 11.8.3-.1 6.5 0 1.3.1 4.8h14.8c-.1-3.6-.2 1.5-.1-5.2.1-7.6 11.9-7.3 11.8.3-.1 6.4 0 1.2.1 4.7 4-.1 7.4-.2 9.3-.4 1.8-.2 2.7-.6 3.5-.9.8-.3 1.5-.7 1.8-.8 1.3-.9 2.3-2.3 2.4-4.7.7-9.5.1-19.2.3-28.9z" fill="#ffd799"/>
  <path class="st6" d="M134.4 221.4c-.1-.6.3-1.1.9-1.1h21.8c.6 0 1 .5.9 1.1 0 0-.9 10.9-11.8 10.9s-11.8-10.9-11.8-10.9zM134.1 218.7c-1.2 0-2.1-1-2.1-2.1-.1-2.2-1.6-2.5-2.5-2.5-2.4 0-2.6 1.9-2.6 2.5 0 1.2-1 2.1-2.1 2.1s-2.1-1-2.1-2.1c0-2.7 1.8-6.8 6.8-6.8s6.8 4.1 6.8 6.8c-.1 1.2-1 2.1-2.2 2.1zM167.7 218.7c-1.2 0-2.1-1-2.1-2.1-.1-2.2-1.6-2.5-2.5-2.5-.6 0-2.5.2-2.5 2.5 0 1.2-1 2.1-2.1 2.1-1.2 0-2.1-1-2.1-2.1 0-2.7 1.8-6.8 6.8-6.8s6.8 4.1 6.8 6.8c-.2 1.2-1.1 2.1-2.3 2.1z"/>
  <g class="st11">
    <ellipse class="st7" cx="113.4" cy="167.2" rx="10.6" ry="11.8"/>
    <path class="st6" d="M113.6 180h-.1c-1.4 0-2.9-.3-4.2-.9l.8-1.7c1.1.5 2.2.7 3.4.7l.1 1.9zm4.1-.9l-.8-1.7c1.1-.5 2-1.2 2.9-2l1.3 1.3c-.9 1-2.1 1.8-3.4 2.4zm-12-2.3c-1-1-1.8-2.1-2.4-3.4l1.7-.8c.5 1.1 1.2 2.1 2.1 2.9l-1.4 1.3zm17.9-3.6l-1.7-.8c.5-1.1.9-2.2 1-3.5l1.9.3c-.2 1.4-.6 2.7-1.2 4zm-21.5-3.9c-.1-.7-.2-1.4-.2-2.1 0-.7 0-1.4.1-2l1.9.3c-.1.6-.1 1.2-.1 1.8 0 .6 0 1.2.1 1.8l-1.8.2zm20.8-4c-.2-1.2-.6-2.4-1.1-3.4l1.7-.8c.6 1.2 1 2.6 1.3 4l-1.9.2zM105 162l-1.7-.8c.6-1.3 1.4-2.4 2.4-3.4l1.3 1.3c-.8.8-1.5 1.8-2 2.9zm14.7-3c-.9-.9-1.9-1.5-2.9-2l.7-1.7c1.3.5 2.5 1.3 3.5 2.4l-1.3 1.3zm-9.8-1.9l-.8-1.7c1.3-.6 2.7-.9 4.2-.9v1.9c-1.1-.1-2.3.2-3.4.7z"/>
    <g>
      <path class="st7" d="M92.3 192.2c0-2.6 5.3-10.5 10.6-10.5s2.6 2.6 10.6 2.6 5.3-2.6 10.6-2.6 10.6 7.9 10.6 10.5c0 2.6 0 5.3-2.6 5.3h-37c-2.8 0-2.8-2.6-2.8-5.3z"/>
      <path class="st6" d="M131.9 198.4h-2.6v-1.9h2.6c.3 0 .5 0 .7-.1l.7 1.7c-.3.3-.8.3-1.4.3zm-6.3 0h-3.7v-1.9h3.7v1.9zm-7.5 0h-3.7v-1.9h3.7v1.9zm-7.4 0H107v-1.9h3.7v1.9zm-7.5 0h-3.7v-1.9h3.7v1.9zm-7.4 0H95c-1.5 0-2.6-.7-3.1-2l1.8-.7c.2.5.5.9 1.4.9h.8v1.8zm39.7-4.2l-1.9-.1v-1.8c0-.2 0-.6-.4-1.4l1.7-.7c.3.8.5 1.6.5 2.1.1.6.1 1.3.1 1.9zm-44.2-1.8v-.1c0-1.3.9-3 1.4-3.9l1.6.9c-.9 1.5-1.2 2.5-1.2 3l-1.8.1zm40.2-4.6c-.7-1-1.5-1.9-2.3-2.6l1.3-1.4c.9.8 1.8 1.8 2.6 2.9l-1.6 1.1zm-35-1.4l-1.4-1.2c.9-1.1 1.9-1.9 2.9-2.6l1.1 1.5c-.9.6-1.8 1.4-2.6 2.3zm16-1.1c-1.6 0-2.9-.2-3.9-.5l.6-1.8c.8.3 2 .4 3.4.5l-.1 1.8zm3.8-.2l-.2-1.9c1.7-.2 2.5-.6 3.1-1l1 1.6c-.8.5-1.8 1.1-3.9 1.3zm10-1.9c-1.1-.5-2.3-.6-3.2-.5l-.1-1.9c1.1-.1 2.7.1 4.1.7l-.8 1.7zm-21.1-.2c-.6-.2-1.3-.3-2.4-.3-.3 0-.5 0-.8.1l-.3-1.8c.4-.1.7-.1 1.1-.1 1.3 0 2.2.1 3.1.5l-.7 1.6z"/>
    </g>
  </g>
  <g class="st11">
    <path class="st7" d="M174.3 162.1c-11.2-.4-13.5.2-24.7.3-4.6 0-4.5-7.2.1-7.2 11.2 0 13.6-.7 24.7-.3 4.7.2 4.6 7.4-.1 7.2z"/>
    <path class="st6" d="M149.6 163.3c-.7 0-1.4-.1-2-.4l.8-1.7c.3.2.7.2 1.1.2h2.2v1.9h-2.1zm5.9-.1v-1.9c1.4 0 2.6-.1 3.8-.1l.1 1.9c-1.2.1-2.5.1-3.9.1zm18.8-.2c-1.4-.1-2.6-.1-3.7-.1V161c1.1 0 2.4.1 3.8.1l-.1 1.9zm.5 0l-.1-1.9c1.3-.1 1.8-1 2-1.5l1.8.7c-.6 1.6-2 2.6-3.7 2.7zm-11.7 0l-.1-1.9c1.2 0 2.4-.1 3.8-.1v1.9c-1.3 0-2.5 0-3.7.1zm-17.9-4v-.2c0-1.6.7-3.1 2-3.9l1 1.6c-.7.5-1.1 1.3-1.1 2.3l-1.9.2zm31.2-2c-.3-.5-.9-1-2-1.1h-.5l.1-1.9h.5c1.5.1 2.8.7 3.5 1.9l-1.6 1.1zm-25-.9v-1.9c1.4 0 2.6 0 3.7-.1v1.9c-1.1.1-2.3.1-3.7.1zm7.5-.1l-.1-1.9 3.8-.1.1 1.9-3.8.1zm11.3-.2h-3.7v-1.9h3.8l-.1 1.9z"/>
    <path class="st7" d="M196.6 179.8c-11.2-.4-35.8.2-47 .3-4.6 0-4.5-7.2.1-7.2 11.2 0 35.8-.7 47-.3 4.6.2 4.5 7.4-.1 7.2z"/>
    <path class="st6" d="M149.6 181c-.9 0-1.7-.2-2.4-.7l1-1.6c.4.2.9.4 1.4.4h1.8v1.9h-1.8zm5.5 0v-1.9h3.8v1.9h-3.8zm7.6-.1V179l3.8-.1v1.9l-3.8.1zm7.5-.1v-1.9h3.8v1.9h-3.8zm26.6 0h-.2c-1.1 0-2.4-.1-3.8-.1v-1.9c1.4 0 2.7.1 3.8.1 1 0 1.6-.3 2.1-1l1.6 1c-.8 1.2-2 1.9-3.5 1.9zm-19-.1v-1.9h3.8v1.9h-3.8zm11.3-.1h-3.7v-1.9h3.8l-.1 1.9zm-42-4.2l-1.9-.1c.1-1.7 1-3.1 2.4-3.8l.8 1.7c-.7.3-1.2 1.1-1.3 2.2zm51.9-1.2c-.2-.5-.7-1.4-2.1-1.6l.2-1.9c1.7.2 3 1.2 3.6 2.7l-1.7.8zm-47.2-1.4v-1.9h3.8v1.9h-3.8zm7.5 0v-1.9l3.8-.1v1.9l-3.8.1zm7.6-.2v-1.9l3.8-.1v1.9l-3.8.1zm7.6-.1l-.1-.9v-.9h3.7v1.9l-3.6-.1zm18.7 0h-3.8v-1.9h3.8v1.9zm-11.3 0v-1.9h3.8v1.9h-3.8z"/>
    <g>
      <path class="st7" d="M196.6 197.5c-11.2-.4-35.8.2-47 .3-4.6 0-4.5-7.2.1-7.2 11.2 0 35.8-.7 47-.3 4.6.2 4.5 7.4-.1 7.2z"/>
      <path class="st6" d="M149.6 198.7c-.9 0-1.7-.2-2.4-.7l1-1.6c.4.2.9.4 1.4.4h1.8v1.9h-1.8zm5.5 0v-1.9h3.8v1.9h-3.8zm7.6-.1v-1.9l3.8-.1v1.9l-3.8.1zm7.5-.1v-1.9h3.8v1.9h-3.8zm26.6 0h-.2c-1.1 0-2.4-.1-3.8-.1v-1.9c1.4 0 2.7.1 3.8.1 1 0 1.6-.3 2.1-1l1.6 1c-.8 1.2-2 1.9-3.5 1.9zm-19-.1v-1.9h3.8v1.9h-3.8zm11.3-.1h-3.7v-1.9h3.8l-.1 1.9zm-42-4.2l-1.9-.1c.1-1.7 1-3.1 2.4-3.8l.8 1.7c-.7.3-1.2 1.2-1.3 2.2zm51.9-1.2c-.2-.5-.7-1.4-2.1-1.6l.2-1.9c1.7.2 3 1.2 3.6 2.7l-1.7.8zm-47.2-1.4v-1.9h3.8v1.9h-3.8zm7.5 0v-1.9l3.8-.1v1.9l-3.8.1zm7.6-.2v-1.9l3.8-.1v1.9l-3.8.1zm7.6-.1l-.1-.9v-.9h3.7v1.9l-3.6-.1zm18.7 0h-3.8v-1.9h3.8v1.9zm-11.3 0v-1.9h3.8v1.9h-3.8z"/>
    </g>
  </g>
  <path class="st6" d="M113.6 180h-.1c-1.4 0-2.9-.3-4.2-.9l.8-1.7c1.1.5 2.2.7 3.4.7l.1 1.9zm4.1-.9l-.8-1.7c1.1-.5 2-1.2 2.9-2l1.3 1.3c-.9 1-2.1 1.8-3.4 2.4zm-12-2.3c-1-1-1.8-2.1-2.4-3.4l1.7-.8c.5 1.1 1.2 2.1 2.1 2.9l-1.4 1.3zm17.9-3.6l-1.7-.8c.5-1.1.9-2.2 1-3.5l1.9.3c-.2 1.4-.6 2.7-1.2 4zm-21.5-3.9c-.1-.7-.2-1.4-.2-2.1 0-.7 0-1.4.1-2l1.9.3c-.1.6-.1 1.2-.1 1.8 0 .6 0 1.2.1 1.8l-1.8.2zm20.8-4c-.2-1.2-.6-2.4-1.1-3.4l1.7-.8c.6 1.2 1 2.6 1.3 4l-1.9.2zM105 162l-1.7-.8c.6-1.3 1.4-2.4 2.4-3.4l1.3 1.3c-.8.8-1.5 1.8-2 2.9zm14.7-3c-.9-.9-1.9-1.5-2.9-2l.7-1.7c1.3.5 2.5 1.3 3.5 2.4l-1.3 1.3zm-9.8-1.9l-.8-1.7c1.3-.6 2.7-.9 4.2-.9v1.9c-1.1-.1-2.3.2-3.4.7zM131.9 198.4h-2.6v-1.9h2.6c.3 0 .5 0 .7-.1l.7 1.7c-.3.3-.8.3-1.4.3zm-6.3 0h-3.7v-1.9h3.7v1.9zm-7.5 0h-3.7v-1.9h3.7v1.9zm-7.4 0H107v-1.9h3.7v1.9zm-7.5 0h-3.7v-1.9h3.7v1.9zm-7.4 0H95c-1.5 0-2.6-.7-3.1-2l1.8-.7c.2.5.5.9 1.4.9h.8v1.8zm39.7-4.2l-1.9-.1v-1.8c0-.2 0-.6-.4-1.4l1.7-.7c.3.8.5 1.6.5 2.1.1.6.1 1.3.1 1.9zm-44.2-1.8v-.1c0-1.3.9-3 1.4-3.9l1.6.9c-.9 1.5-1.2 2.5-1.2 3l-1.8.1zm40.2-4.6c-.7-1-1.5-1.9-2.3-2.6l1.3-1.4c.9.8 1.8 1.8 2.6 2.9l-1.6 1.1zm-35-1.4l-1.4-1.2c.9-1.1 1.9-1.9 2.9-2.6l1.1 1.5c-.9.6-1.8 1.4-2.6 2.3zm16-1.1c-1.6 0-2.9-.2-3.9-.5l.6-1.8c.8.3 2 .4 3.4.5l-.1 1.8zm3.8-.2l-.2-1.9c1.7-.2 2.5-.6 3.1-1l1 1.6c-.8.5-1.8 1.1-3.9 1.3zm10-1.9c-1.1-.5-2.3-.6-3.2-.5l-.1-1.9c1.1-.1 2.7.1 4.1.7l-.8 1.7zm-21.1-.2c-.6-.2-1.3-.3-2.4-.3-.3 0-.5 0-.8.1l-.3-1.8c.4-.1.7-.1 1.1-.1 1.3 0 2.2.1 3.1.5l-.7 1.6z"/>
  <g>
    <path class="st6" d="M149.6 163.3c-.7 0-1.4-.1-2-.4l.8-1.7c.3.2.7.2 1.1.2h2.2v1.9h-2.1zm5.9-.1v-1.9c1.4 0 2.6-.1 3.8-.1l.1 1.9c-1.2.1-2.5.1-3.9.1zm18.8-.2c-1.4-.1-2.6-.1-3.7-.1V161c1.1 0 2.4.1 3.8.1l-.1 1.9zm.5 0l-.1-1.9c1.3-.1 1.8-1 2-1.5l1.8.7c-.6 1.6-2 2.6-3.7 2.7zm-11.7 0l-.1-1.9c1.2 0 2.4-.1 3.8-.1v1.9c-1.3 0-2.5 0-3.7.1zm-17.9-4v-.2c0-1.6.7-3.1 2-3.9l1 1.6c-.7.5-1.1 1.3-1.1 2.3l-1.9.2zm31.2-2c-.3-.5-.9-1-2-1.1h-.5l.1-1.9h.5c1.5.1 2.8.7 3.5 1.9l-1.6 1.1zm-25-.9v-1.9c1.4 0 2.6 0 3.7-.1v1.9c-1.1.1-2.3.1-3.7.1zm7.5-.1l-.1-1.9 3.8-.1.1 1.9-3.8.1zm11.3-.2h-3.7v-1.9h3.8l-.1 1.9zM149.6 181c-.9 0-1.7-.2-2.4-.7l1-1.6c.4.2.9.4 1.4.4h1.8v1.9h-1.8zm5.5 0v-1.9h3.8v1.9h-3.8zm7.6-.1V179l3.8-.1v1.9l-3.8.1zm7.5-.1v-1.9h3.8v1.9h-3.8zm26.6 0h-.2c-1.1 0-2.4-.1-3.8-.1v-1.9c1.4 0 2.7.1 3.8.1 1 0 1.6-.3 2.1-1l1.6 1c-.8 1.2-2 1.9-3.5 1.9zm-19-.1v-1.9h3.8v1.9h-3.8zm11.3-.1h-3.7v-1.9h3.8l-.1 1.9zm-42-4.2l-1.9-.1c.1-1.7 1-3.1 2.4-3.8l.8 1.7c-.7.3-1.2 1.1-1.3 2.2zm51.9-1.2c-.2-.5-.7-1.4-2.1-1.6l.2-1.9c1.7.2 3 1.2 3.6 2.7l-1.7.8zm-47.2-1.4v-1.9h3.8v1.9h-3.8zm7.5 0v-1.9l3.8-.1v1.9l-3.8.1zm7.6-.2v-1.9l3.8-.1v1.9l-3.8.1zm7.6-.1l-.1-.9v-.9h3.7v1.9l-3.6-.1zm18.7 0h-3.8v-1.9h3.8v1.9zm-11.3 0v-1.9h3.8v1.9h-3.8zM149.6 198.7c-.9 0-1.7-.2-2.4-.7l1-1.6c.4.2.9.4 1.4.4h1.8v1.9h-1.8zm5.5 0v-1.9h3.8v1.9h-3.8zm7.6-.1v-1.9l3.8-.1v1.9l-3.8.1zm7.5-.1v-1.9h3.8v1.9h-3.8zm26.6 0h-.2c-1.1 0-2.4-.1-3.8-.1v-1.9c1.4 0 2.7.1 3.8.1 1 0 1.6-.3 2.1-1l1.6 1c-.8 1.2-2 1.9-3.5 1.9zm-19-.1v-1.9h3.8v1.9h-3.8zm11.3-.1h-3.7v-1.9h3.8l-.1 1.9zm-42-4.2l-1.9-.1c.1-1.7 1-3.1 2.4-3.8l.8 1.7c-.7.3-1.2 1.2-1.3 2.2zm51.9-1.2c-.2-.5-.7-1.4-2.1-1.6l.2-1.9c1.7.2 3 1.2 3.6 2.7l-1.7.8zm-47.2-1.4v-1.9h3.8v1.9h-3.8zm7.5 0v-1.9l3.8-.1v1.9l-3.8.1zm7.6-.2v-1.9l3.8-.1v1.9l-3.8.1zm7.6-.1l-.1-.9v-.9h3.7v1.9l-3.6-.1zm18.7 0h-3.8v-1.9h3.8v1.9zm-11.3 0v-1.9h3.8v1.9h-3.8z"/>
  </g>
  <path class="st7" d="M182.9 114.4c.1.5 2.6 11.9 3.8 16.6.5 1.9 1.5 2 1.9 1.4 2.5-3.1 5-6.2 7-9.6 1.4-1.8 2.6-3.8 4-5.7 1.8-2.6-.8-4.6-2.4-2.1-2.1 3.3-4.4 6.5-6.6 9.8 0-.2.1-.4.1-.6.8-4.4 3-8.5 5.3-12.3 2.6-4.2 5.8-8 9.4-11.3 5.5-5 11.9-8.9 18.9-11.4 2.5-.9 4.9-1.4 5.8-1.6.4-.1.4-.8-.2-1.5-2.9-2.7-7.9-.6-11.1.6-4.6 1.8-8.9 4.4-12.7 7.5-1 .8-2 1.7-3 2.6-.6.5-1.2 1-1.7 1.5-7.2 6.4-14.4 16.4-12.4 26.5-.3-1-.6-1.9-.9-2.9-.9-2.9-1.8-5.8-2.7-8.8-.4-1.5-3-1.5-2.5 1.3zM108 116.8c-.9 2.9-1.8 5.8-2.7 8.8-.3 1-.6 1.9-.9 2.9 2-10.1-5.2-20.1-12.4-26.5-.6-.5-1.1-1-1.7-1.5-1-.9-1.9-1.8-3-2.6-3.8-3.1-8.1-5.7-12.7-7.5-3.2-1.3-8.2-3.3-11.1-.6-.7.7-.6 1.4-.2 1.5.9.2 3.3.6 5.8 1.6 7 2.5 13.4 6.4 18.9 11.4 3.6 3.3 6.8 7.1 9.4 11.3 2.4 3.7 4.5 7.9 5.3 12.3 0 .2.1.4.1.7-2.2-3.3-4.5-6.4-6.6-9.8-1.6-2.5-4.2-.5-2.4 2.1 1.3 1.9 2.6 3.8 4 5.7 2 3.4 4.5 6.5 7 9.6.4.5 1.4.5 1.9-1.4 1.2-4.7 3.8-16.1 3.8-16.6.5-3-2.1-3-2.5-1.4zM152.7 111.7l-4.2 6.6c-.5.7-.9 1.4-1.4 2.2 2.3-4.6 1.7-35.2.8-40-.6-3.5-3.3-3.2-3.4 1.1-.1 3.5 1.7 34.4 1.4 38 0 .2-.1.4-.1.5-1.1-2.9-2.3-5.8-3.3-8.7-.7-2.2-3.4-1-2.5 1.3.7 1.7 1.3 3.4 2 5.1.9 3 2.3 5.8 3.7 8.7.2.5 1 .6 1.9-.9 2.1-3.5 6.7-12.2 6.9-12.6 1.1-2.1-1.1-2.5-1.8-1.3z"/>
  <g id="icons_x2F_16_x2F_connect-apple_1_">
    <path id="Shape_1_" d="M45.5 68.9c2.7 6.8 9.4 6.8 9.5 6.8 0 .2.3 3.6-.7 7.6-.8 3.4-1.7 6.9-4.8 8.1-3 1.2-4.6-.3-8.1 1.1-3.4 1.3-3.8 3.4-6.6 4.6-2.9 1.2-6.3-1-9.3-3C19.5 90 12.7 81 14 72.6c.7-4.2 3.3-7.7 7.1-9.2 2.9-1.2 6.4-.2 8.1-.9 1.8-.7 4.2-4.4 7.8-5.3 1.5-.5 5.8-1.5 9.9 1.3 0 .2-3.7 4.7-1.4 10.4M33.4 54.4c.8-2.5.9-5.5-.4-8-2.2 1-4.4 3.4-5.3 5.9-.8 2.2-1 5.4.3 7.8 2.6-.8 4.6-3.2 5.4-5.7"/>
  </g>
  <g id="icons_x2F_16_x2F_connect-google_1_">
    <g id="Page-1_1_" transform="translate(.3)">
      <g id="Group-3_1_" transform="translate(7.837 6.207)">
        <defs>
          <filter id="Adobe_OpacityMaskFilter" filterUnits="userSpaceOnUse" x="253.8" y="60.2" width="24.1" height="25.5">
            <feColorMatrix values="1 0 0 0 0 0 1 0 0 0 0 0 1 0 0 0 0 0 1 0"/>
          </filter>
        </defs>
        <mask maskUnits="userSpaceOnUse" x="253.8" y="60.2" width="24.1" height="25.5" id="mask-2_1_">
          <g filter="url(#Adobe_OpacityMaskFilter)">
            <path id="path-1_4_" class="st22" d="M255.9 60.2l22.5 5.2-5.1 22-22.5-5.3z"/>
          </g>
        </mask>
        <path id="Fill-1_1_" d="M277.9 65.3l-22-5.1-2.1 9 12.6 2.9c-1.2 2.8-3.5 4.9-6.3 6l6.2 7.6c3.3-1.9 6-4.6 7.9-7.8 2.2-3.8 3.5-8.1 3.7-12.6z" mask="url(#mask-2_1_)" fill="#3e82f1"/>
      </g>
      <g id="Group-6_1_" transform="translate(.653 9.146)">
        <defs>
          <filter id="Adobe_OpacityMaskFilter_1_" filterUnits="userSpaceOnUse" x="238.8" y="62.9" width="34.7" height="22.8">
            <feColorMatrix values="1 0 0 0 0 0 1 0 0 0 0 0 1 0 0 0 0 0 1 0"/>
          </filter>
        </defs>
        <mask maskUnits="userSpaceOnUse" x="238.8" y="62.9" width="34.7" height="22.8" id="mask-4_1_">
          <g filter="url(#Adobe_OpacityMaskFilter_1_)">
            <path id="path-3_1_" class="st22" d="M240.2 61l36.4 8.5-4.5 19-36.3-8.5z"/>
          </g>
        </mask>
        <path id="Fill-4_1_" d="M267.3 75.2c-2.7 1-5.6 1.1-8.4.4h-.1c-4.3-1.1-7.8-4-9.5-8.1-.6-1.4-1-2.9-1.2-4.4v-.3l-6.3 2.9-3 1.4c1 4 3 7.7 5.8 10.8 3.2 3.5 7.4 5.9 12 7h.1c5.7 1.5 11.7.7 16.8-2.1l-6.2-7.6z" mask="url(#mask-4_1_)" fill="#32a753"/>
      </g>
      <g id="Group-9_1_" transform="translate(0 4.248)">
        <defs>
          <filter id="Adobe_OpacityMaskFilter_2_" filterUnits="userSpaceOnUse" x="238.8" y="51" width="12" height="21">
            <feColorMatrix values="1 0 0 0 0 0 1 0 0 0 0 0 1 0 0 0 0 0 1 0"/>
          </filter>
        </defs>
        <mask maskUnits="userSpaceOnUse" x="238.8" y="51" width="12" height="21" id="mask-6_1_">
          <g filter="url(#Adobe_OpacityMaskFilter_2_)">
            <path id="path-5_1_" class="st22" d="M241.8 50.5l10.4 2.4-4.9 20.9-10.4-2.4z"/>
          </g>
        </mask>
        <path id="Fill-7_1_" d="M250.7 58.9l-4.3-5.3-2.1-2.6c-.5.6-.9 1.1-1.3 1.7-3.4 5-4.9 11.1-4 17.1.1.7.2 1.5.4 2.1l3-1.4 6.2-2.9c-.3-2.9.5-6 2.1-8.7z" mask="url(#mask-6_1_)" fill="#f9bb00"/>
      </g>
      <path id="Fill-10_1_" d="M268.2 47.3c-8.9-2.1-18.1 1-23.9 8l2.1 2.5 4.3 5.3c0-.1.1-.1.2-.2.8-1.3 1.8-2.4 3-3.4 3.3-2.8 7.8-3.9 12.1-3h.1c3.3.7 6.2 2.7 8.1 5.6l8.2-5c-3.3-5-8.4-8.5-14.2-9.8" fill="#e74133"/>
    </g>
  </g>
  <g id="icons_x2F_16_x2F_team_1_">
    <g id="Mask_1_">
      <path id="path-1_3_" class="st6" d="M155.7 40.8c-2.6-1.3-4.9-4.9-4.9-8.9 0-5.6 3.6-9.9 8.2-9.9s8.2 4.3 8.2 9.9c0 3.9-2 7.6-4.9 9.2V45l3.6 2c1.6.7 3.6 2.6 4.3 4.3l.3.7c.7 1.6 0 3-1.6 3h-19.7c-1.6 0-2.6-1.3-1.6-3l.3-.7c.7-1.6 2.6-3.6 4.3-4.3l3.6-2v-4.2zM134.3 51c-3.9-1.6-6.6-5.9-6.6-10.9 0-6.2 4.6-11.5 9.9-11.5s9.9 5.3 9.9 11.5c0 4.9-2.6 9.2-6.6 10.9v4l6.9 2.3c1.6.7 3.6 2.3 4.6 3.9l.3.7c.7 1.6 0 3-1.6 3h-26.3c-1.6 0-2.6-1.3-1.6-3l.3-.7c.7-1.6 3-3.3 4.6-3.9l6.2-2.3v-4z"/>
    </g>
  </g>
</svg>
