<svg width="101" height="86" xmlns="http://www.w3.org/2000/svg">
  <g fill="none" fill-rule="evenodd">
    <path d="M80.16 77.92c.382-5.691.083-11.388.147-17.091.036-3.368 0-6.735 0-10.103 0-3.367.054-6.735 0-10.108-.066-5.796.245-11.592-.15-17.388a3.344 3.344 0 0 0-1.447-2.799 9.409 9.409 0 0 0-1.052-.52 6.197 6.197 0 0 0-2.07-.539c-4.48-.442-20.247-.418-26.079-.293-4.193-.066-17.365-.13-27.931.002 1.306-4.8 2.62-9.43 4.123-14.279.417-1.325.925-2.873 2.422-3.884 1.497-1.01 2.993-.864 4.441-.606 6.984 1.252 33.304 8.404 39.453 10.157 5.666 1.388 20.901 5.446 25.114 7.033a6.196 6.196 0 0 1 1.86 1.055c.31.24.604.499.881.775.725.85.978 2.004.674 3.079-1.119 5.7-2.92 11.218-4.356 16.834-.82 3.272-1.744 6.51-2.616 9.764-.872 3.252-1.708 6.514-2.615 9.758-1.565 5.587-2.765 11.266-4.662 16.752a3.344 3.344 0 0 1-2.122 2.329c-.378.096-.762.17-1.149.219a6.346 6.346 0 0 1-2.138-.016c-.218-.036-.46-.08-.728-.13z" fill="#D6D8DA" fill-rule="nonzero"/>
    <path d="M77.307 63.829c.036-3.368 0-6.735 0-10.103 0-3.367.054-6.735 0-10.108-.066-5.796.245-11.592-.15-17.388a3.344 3.344 0 0 0-1.447-2.799 9.409 9.409 0 0 0-1.052-.52 6.197 6.197 0 0 0-2.07-.539c-4.48-.442-20.247-.418-26.079-.293-6.394-.101-33.668-.197-40.738.4-1.466.127-2.949.372-4.133 1.736C.453 25.578.364 27.205.304 28.593.064 34.748.01 40.52.01 46.663v14.121c-.042 6.149.036 11.921.275 18.064.06 1.393.114 2.99 1.334 4.378s2.667 1.61 4.133 1.735c1.1.09 2.691.167 4.617.227-.06-2.111-.107.98-.06-2.871.054-4.54 7.136-4.348 7.076.203-.041 3.822 0 .718.06 2.823 3.368.048 7.046.072 10.653.084-.06-2.165-.114.891-.066-3.11.054-4.54 7.136-4.348 7.076.203-.048 3.876 0 .79.06 2.913 3.475 0 6.58 0 8.834-.042-.06-2.159-.113.904-.065-3.074.053-4.54 7.135-4.348 7.075.203-.047 3.87 0 .778.06 2.901h8.835c-.06-2.165-.114.885-.06-3.11.054-4.54 7.13-4.348 7.076.203-.048 3.816 0 .706.054 2.806 2.392-.054 4.396-.138 5.592-.258a6.346 6.346 0 0 0 2.07-.538 9.409 9.409 0 0 0 1.052-.508 3.344 3.344 0 0 0 1.448-2.8c.412-5.79.101-11.585.167-17.387z" fill="#D6D8DA" fill-rule="nonzero"/>
    <path d="M28 70.296a1.162 1.162 0 0 1 .354-.847 1.236 1.236 0 0 1 .878-.35c.173 0 .334.031.483.094.15.064.28.149.392.256a1.159 1.159 0 0 1 .357.847 1.187 1.187 0 0 1-.357.854 1.229 1.229 0 0 1-.392.252c-.15.06-.31.091-.483.091-.177 0-.34-.03-.49-.091A1.175 1.175 0 0 1 28 70.296zm6.762 1.099h-1.974l-2.814-7.259h1.806c.154 0 .283.036.389.109a.54.54 0 0 1 .213.269l1.008 3.255c.08.266.155.525.227.777.073.252.135.504.186.756.051-.252.114-.504.189-.756s.154-.511.238-.777l1.05-3.255a.546.546 0 0 1 .21-.27.616.616 0 0 1 .364-.108h1.722l-2.814 7.259zm8.68-5.537a1.2 1.2 0 0 1-.189.189.417.417 0 0 1-.259.07.558.558 0 0 1-.29-.077 60.094 60.094 0 0 0-.291-.172 2.204 2.204 0 0 0-.378-.171 1.627 1.627 0 0 0-.539-.077 1.51 1.51 0 0 0-.69.147 1.277 1.277 0 0 0-.479.42 1.92 1.92 0 0 0-.28.669c-.06.263-.091.56-.091.892 0 .695.134 1.23.402 1.603.269.373.639.56 1.11.56.252 0 .451-.031.598-.094.148-.064.272-.133.375-.21l.283-.214a.524.524 0 0 1 .326-.098c.173 0 .303.063.392.189l.63.777a3.428 3.428 0 0 1-1.467 1.005 3.92 3.92 0 0 1-.78.188 5.747 5.747 0 0 1-.763.053c-.443 0-.867-.084-1.27-.252a3.113 3.113 0 0 1-1.065-.731 3.503 3.503 0 0 1-.727-1.18c-.18-.467-.27-.999-.27-1.596 0-.523.078-1.011.235-1.467a3.33 3.33 0 0 1 .692-1.183 3.222 3.222 0 0 1 1.135-.787c.45-.191.971-.287 1.564-.287.57 0 1.069.091 1.498.273.43.182.817.448 1.162.798l-.574.763zm1.89 5.537v-5.768l-.476-.098a.983.983 0 0 1-.395-.175c-.1-.08-.151-.196-.151-.35v-.854h1.022v-.413c0-.415.066-.791.2-1.127.133-.336.324-.623.574-.861.25-.238.554-.422.913-.553A3.57 3.57 0 0 1 48.244 61a3.44 3.44 0 0 1 .966.133l-.042 1.057a.35.35 0 0 1-.06.186.42.42 0 0 1-.129.119.583.583 0 0 1-.172.066.853.853 0 0 1-.185.021c-.191 0-.362.019-.511.056a.819.819 0 0 0-.374.2.898.898 0 0 0-.228.377 1.925 1.925 0 0 0-.077.592v.343h1.708v1.484h-1.638v5.761h-2.17z" fill="#95999D"/>
    <g opacity=".56" transform="translate(5.981 29.178)" fill="#95999D" fill-rule="nonzero">
      <ellipse cx="12.691" cy="7.668" rx="6.322" ry="7.088"/>
      <path d="M.047 22.633c0-1.579 3.14-6.304 6.322-6.304s1.603 1.579 6.322 1.579c4.72 0 3.158-1.579 6.322-1.579 3.165 0 6.305 4.725 6.305 6.304 0 1.58 0 3.146-1.58 3.146H1.609c-1.561 0-1.561-1.573-1.561-3.146z"/>
    </g>
    <g opacity=".56" fill="#95999D" fill-rule="nonzero">
      <path d="M55.11 33.783c-6.692-.245-8.08.144-14.803.156-2.77 0-2.71-4.283.066-4.289 6.723 0 8.104-.4 14.797-.155 2.764.101 2.716 4.39-.06 4.288zM68.42 44.376c-6.694-.251-21.39.138-28.113.15-2.77 0-2.71-4.277.066-4.283 6.723 0 21.419-.407 28.112-.156 2.757.102 2.715 4.39-.066 4.29zM68.42 54.963c-6.694-.245-21.39.144-28.113.156-2.77 0-2.71-4.277.066-4.283 6.723 0 21.419-.407 28.112-.156 2.757.102 2.715 4.39-.066 4.283z"/>
    </g>
  </g>
</svg>
