<svg width="101" height="86" xmlns="http://www.w3.org/2000/svg" xmlns:xlink="http://www.w3.org/1999/xlink">
  <defs>
    <path d="M41 52.604v1.394A1 1 0 0 1 39.99 55h-1.98c-.567 0-1.01-.452-1.01-1.01V51a2 2 0 0 1 2-2c.895 0 2-1.105 2-2s-1.105-2-2-2-2 1.105-2 2h-4c0-3.105 2.895-6 6-6s6 2.895 6 6c0 2.418-1.756 4.71-4 5.604zM37 59c0-1.105.888-2 2-2 1.105 0 2 .888 2 2 0 1.105-.888 2-2 2-1.105 0-2-.888-2-2z" id="a"/>
  </defs>
  <g fill="none" fill-rule="evenodd">
    <path d="M80.16 77.92c.382-5.691.083-11.388.147-17.091.036-3.368 0-6.735 0-10.103 0-3.367.054-6.735 0-10.108-.066-5.796.245-11.592-.15-17.388a3.344 3.344 0 0 0-1.447-2.799 9.409 9.409 0 0 0-1.052-.52 6.197 6.197 0 0 0-2.07-.539c-4.48-.442-20.247-.418-26.079-.293-4.193-.066-17.365-.13-27.931.002 1.306-4.8 2.62-9.43 4.123-14.279.417-1.325.925-2.873 2.422-3.884 1.497-1.01 2.993-.864 4.441-.606 6.984 1.252 33.304 8.404 39.453 10.157 5.666 1.388 20.901 5.446 25.114 7.033a6.196 6.196 0 0 1 1.86 1.055c.31.24.604.499.881.775.725.85.978 2.004.674 3.079-1.119 5.7-2.92 11.218-4.356 16.834-.82 3.272-1.744 6.51-2.616 9.764-.872 3.252-1.708 6.514-2.615 9.758-1.565 5.587-2.765 11.266-4.662 16.752a3.344 3.344 0 0 1-2.122 2.329c-.378.096-.762.17-1.149.219a6.346 6.346 0 0 1-2.138-.016c-.218-.036-.46-.08-.728-.13z" fill="#F52D2D" fill-rule="nonzero"/>
    <path d="M77.307 63.829c.036-3.368 0-6.735 0-10.103 0-3.367.054-6.735 0-10.108-.066-5.796.245-11.592-.15-17.388a3.344 3.344 0 0 0-1.447-2.799 9.409 9.409 0 0 0-1.052-.52 6.197 6.197 0 0 0-2.07-.539c-4.48-.442-20.247-.418-26.079-.293-6.394-.101-33.668-.197-40.738.4-1.466.127-2.949.372-4.133 1.736C.453 25.578.364 27.205.304 28.593.064 34.748.01 40.52.01 46.663v14.121c-.042 6.149.036 11.921.275 18.064.06 1.393.114 2.99 1.334 4.378s2.667 1.61 4.133 1.735c1.1.09 2.691.167 4.617.227-.06-2.111-.107.98-.06-2.871.054-4.54 7.136-4.348 7.076.203-.041 3.822 0 .718.06 2.823 3.368.048 7.046.072 10.653.084-.06-2.165-.114.891-.066-3.11.054-4.54 7.136-4.348 7.076.203-.048 3.876 0 .79.06 2.913 3.475 0 6.58 0 8.834-.042-.06-2.159-.113.904-.065-3.074.053-4.54 7.135-4.348 7.075.203-.047 3.87 0 .778.06 2.901h8.835c-.06-2.165-.114.885-.06-3.11.054-4.54 7.13-4.348 7.076.203-.048 3.816 0 .706.054 2.806 2.392-.054 4.396-.138 5.592-.258a6.346 6.346 0 0 0 2.07-.538 9.409 9.409 0 0 0 1.052-.508 3.344 3.344 0 0 0 1.448-2.8c.412-5.79.101-11.585.167-17.387z" fill="#F52D2D" fill-rule="nonzero"/>
    <path d="M22.077 48.81c-.464 4.669 1.233 9.68 3.27 12.276 5.45 7.03 16.314 9.302 23.533 3.984 7.29-5.372 12.097-16.224 3.61-26.409-7.255-8.688-20.764-6.85-27.196 1.93-1.734 2.36-2.913 5.299-3.217 8.22" fill="#FDD5D5"/>
    <use fill="#F52D2D" xlink:href="#a"/>
  </g>
</svg>
