<?xml version="1.0" encoding="UTF-8"?>
<svg width="16px" height="16px" viewBox="0 0 16 16" version="1.1" xmlns="http://www.w3.org/2000/svg" xmlns:xlink="http://www.w3.org/1999/xlink">
    <!-- Generator: Sketch 48.2 (47327) - http://www.bohemiancoding.com/sketch -->
    <title>icon-location-16</title>
    <desc>Created with Sketch.</desc>
    <defs>
        <path d="M136,255 C139.990737,255 143,257.866 143,261.666667 C143,266.449333 136.492211,270.756 136.215895,270.937333 C136.151053,270.979333 136.075158,271 136,271 C135.924105,271 135.848211,270.979333 135.784105,270.937333 C135.507053,270.756 129,266.449333 129,261.666667 C129,257.866 132.009263,255 136,255 Z M136,264 C137.380712,264 138.5,262.880712 138.5,261.5 C138.5,260.119288 137.380712,259 136,259 C134.619288,259 133.5,260.119288 133.5,261.5 C133.5,262.880712 134.619288,264 136,264 Z" id="path-1"></path>
    </defs>
    <g id="16px" stroke="none" stroke-width="1" fill-rule="evenodd" transform="translate(-128.000000, -255.000000)">
        <g id="slices" transform="translate(32.000000, 32.000000)"></g>
        <mask id="mask-2">
            <use xlink:href="#path-1"></use>
        </mask>
        <use id="Mask" xlink:href="#path-1"></use>
    </g>
</svg>
