<svg width="16" height="16" xmlns="http://www.w3.org/2000/svg" xmlns:xlink="http://www.w3.org/1999/xlink">
  <defs>
    <path d="M101.88 259.655a1.68 1.68 0 0 0 .001-2.377l-1.784-1.786a1.685 1.685 0 0 0-2.38 0l-.98.979a2.521 2.521 0 0 0-.316 3.175 39.038 39.038 0 0 0 10.935 10.934c.999.662 2.328.53 3.175-.316l.979-.979a1.681 1.681 0 0 0 0-2.379l-1.785-1.784a1.679 1.679 0 0 0-2.379 0l-.594.593a40.017 40.017 0 0 1-5.467-5.465l.595-.595z" id="a"/>
  </defs>
  <g fill-rule="evenodd" transform="translate(-96 -255)">
    <use xlink:href="#a"/>
  </g>
</svg>
