<?xml version="1.0" encoding="UTF-8"?>
<svg width="12px" height="12px" viewBox="0 0 12 12" version="1.1" xmlns="http://www.w3.org/2000/svg" xmlns:xlink="http://www.w3.org/1999/xlink">
    <!-- Generator: Sketch 49 (51002) - http://www.bohemiancoding.com/sketch -->
    <title>Mask</title>
    <desc>Created with Sketch.</desc>
    <defs>
        <path d="M6,4.58578644 L8.29289322,2.29289322 C8.68341751,1.90236893 9.31658249,1.90236893 9.70710678,2.29289322 C10.0976311,2.68341751 10.0976311,3.31658249 9.70710678,3.70710678 L7.41421356,6 L9.70710678,8.29289322 C10.0976311,8.68341751 10.0976311,9.31658249 9.70710678,9.70710678 C9.31658249,10.0976311 8.68341751,10.0976311 8.29289322,9.70710678 L6,7.41421356 L3.70710678,9.70710678 C3.31658249,10.0976311 2.68341751,10.0976311 2.29289322,9.70710678 C1.90236893,9.31658249 1.90236893,8.68341751 2.29289322,8.29289322 L4.58578644,6 L2.29289322,3.70710678 C1.90236893,3.31658249 1.90236893,2.68341751 2.29289322,2.29289322 C2.68341751,1.90236893 3.31658249,1.90236893 3.70710678,2.29289322 L6,4.58578644 Z" id="path-1"></path>
    </defs>
    <g id="📦-symbols" stroke-width="1" fill-rule="evenodd">
        <mask id="mask-2">
            <use xlink:href="#path-1"></use>
        </mask>
        <use id="Mask" transform="translate(6.000000, 6.000000) rotate(45.000000) translate(-6.000000, -6.000000) " xlink:href="#path-1"></use>
    </g>
</svg>
