<?xml version="1.0" encoding="utf-8"?>
<!-- Generator: Adobe Illustrator 22.0.1, SVG Export Plug-In . SVG Version: 6.00 Build 0)  -->
<svg version="1.1" id="Layer_1" xmlns="http://www.w3.org/2000/svg" xmlns:xlink="http://www.w3.org/1999/xlink" x="0px" y="0px"
	 viewBox="0 0 8 8" style="enable-background:new 0 0 8 8;" xml:space="preserve">
<title>icons/12/cross</title>
<desc>Created with Sketch.</desc>
<g id="icons_x2F_12_x2F_cross">
	<g id="Mask">
		<path id="path-1_1_" class="st0" d="M4,2.6l2.3-2.3c0.4-0.4,1-0.4,1.4,0s0.4,1,0,1.4L5.4,4l2.3,2.3c0.4,0.4,0.4,1,0,1.4
			s-1,0.4-1.4,0L4,5.4L1.7,7.7c-0.4,0.4-1,0.4-1.4,0s-0.4-1,0-1.4L2.6,4L0.3,1.7c-0.4-0.4-0.4-1,0-1.4s1-0.4,1.4,0L4,2.6z"/>
	</g>
</g>
</svg>
