<?xml version="1.0" encoding="UTF-8"?>
<svg width="8px" height="8px" viewBox="0 0 8 8" version="1.1" xmlns="http://www.w3.org/2000/svg" xmlns:xlink="http://www.w3.org/1999/xlink">
    <!-- Generator: Sketch 49 (51002) - http://www.bohemiancoding.com/sketch -->
    <title>icons/16/cross</title>
    <desc>Created with Sketch.</desc>
    <defs>
        <path d="M4,2.58578644 L6.29289322,0.292893219 C6.68341751,-0.0976310729 7.31658249,-0.0976310729 7.70710678,0.292893219 C8.09763107,0.683417511 8.09763107,1.31658249 7.70710678,1.70710678 L5.41421356,4 L7.70710678,6.29289322 C8.09763107,6.68341751 8.09763107,7.31658249 7.70710678,7.70710678 C7.31658249,8.09763107 6.68341751,8.09763107 6.29289322,7.70710678 L4,5.41421356 L1.70710678,7.70710678 C1.31658249,8.09763107 0.683417511,8.09763107 0.292893219,7.70710678 C-0.0976310729,7.31658249 -0.0976310729,6.68341751 0.292893219,6.29289322 L2.58578644,4 L0.292893219,1.70710678 C-0.0976310729,1.31658249 -0.0976310729,0.683417511 0.292893219,0.292893219 C0.683417511,-0.0976310729 1.31658249,-0.0976310729 1.70710678,0.292893219 L4,2.58578644 Z" id="path-1"></path>
    </defs>
    <g id="📦-symbols" stroke-width="1">
        <g id="icons/16/cross">
            <mask id="mask-2">
                <use xlink:href="#path-1"></use>
            </mask>
            <use id="Mask" xlink:href="#path-1"></use>
        </g>
    </g>
</svg>
