<?xml version="1.0" encoding="UTF-8"?>
<!-- Generator: Adobe Illustrator 22.1.0, SVG Export Plug-In . SVG Version: 6.00 Build 0)  -->
<svg version="1.1" id="Layer_1" xmlns="http://www.w3.org/2000/svg" xmlns:xlink="http://www.w3.org/1999/xlink" x="0px" y="0px" viewBox="0 0 16 16" style="enable-background:new 0 0 16 16;" xml:space="preserve">
<style type="text/css">
	.st0{fill:none;}
</style>
<title>icons/16/team</title>
<desc>Created with Sketch.</desc>
<g id="icons_x2F_16_x2F_team">
	<g id="Mask">
		<path id="path-1_1_" class="st0" d="M11.1,7.7C10.3,7.3,9.6,6.2,9.6,5c0-1.7,1.1-3,2.5-3s2.5,1.3,2.5,3c0,1.2-0.6,2.3-1.5,2.8V9    l1.1,0.6c0.5,0.2,1.1,0.8,1.3,1.3l0.1,0.2c0.2,0.5,0,0.9-0.5,0.9h-6c-0.5,0-0.8-0.4-0.5-0.9l0.1-0.2c0.2-0.5,0.8-1.1,1.3-1.3    L11.1,9V7.7z M4.6,10.8c-1.2-0.5-2-1.8-2-3.3C2.6,5.6,4,4,5.6,4s3,1.6,3,3.5c0,1.5-0.8,2.8-2,3.3V12l2.1,0.7    c0.5,0.2,1.1,0.7,1.4,1.2l0.1,0.2c0.2,0.5,0,0.9-0.5,0.9h-8c-0.5,0-0.8-0.4-0.5-0.9l0.1-0.2c0.2-0.5,0.9-1,1.4-1.2L4.6,12V10.8z"/>
	</g>
</g>
</svg>