<?xml version="1.0" encoding="UTF-8"?>
<svg width="32px" height="32px" viewBox="0 0 32 32" version="1.1" xmlns="http://www.w3.org/2000/svg" xmlns:xlink="http://www.w3.org/1999/xlink">
    <!-- Generator: Sketch 50.2 (55047) - http://www.bohemiancoding.com/sketch -->
    <title>icon-contacts</title>
    <desc>Created with Sketch.</desc>
    <defs></defs>
    <g id="icon-contacts" stroke="none" stroke-width="1" fill="none" fill-rule="evenodd">
        <g id="contacts-02" transform="translate(1.000000, 5.000000)">
            <path d="M30,20.5032751 C30,21.6060358 29.1101995,22.5 27.9901376,22.5 L22.5,22.5 L22.5,20.2536611 C22.5,19.423212 21.8191722,18.75 20.9949455,18.75 L21.1925545,18.75 C20.3613359,18.75 19.6875,19.4204248 19.6875,20.2536611 L19.6875,22.5 L10.3125,22.5 L10.3125,20.2536611 C10.3125,19.423212 9.6316722,18.75 8.80744547,18.75 L9.00505453,18.75 C8.17383587,18.75 7.5,19.4204248 7.5,20.2536611 L7.5,22.5 L2.00986236,22.5 C0.899846031,22.5 -3.21275034e-13,21.6040887 -3.22373694e-13,20.5032751 L-3.4084405e-13,1.9967249 C-3.41944654e-13,0.89396419 0.89784041,2.90464514e-14 1.99161703,2.90229711e-14 L28.008383,2.84644639e-14 C29.1083227,2.84408512e-14 30,0.895911329 30,1.9967249 L30,20.5032751 Z" id="Fill-647" fill="#FFD799"></path>
            <path d="M15.9375,4.6875 L21.5625,4.6875 L21.5625,5.625 L15.9375,5.625 L15.9375,4.6875 Z M15.9375,7.5 L26.25,7.5 L26.25,8.4375 L15.9375,8.4375 L15.9375,7.5 Z M15.9375,10.3125 L26.25,10.3125 L26.25,11.25 L15.9375,11.25 L15.9375,10.3125 Z M15.9375,13.125 L26.25,13.125 L26.25,14.0625 L15.9375,14.0625 L15.9375,13.125 Z M8.4375,10.078125 C6.88419914,10.078125 5.625,8.66152597 5.625,6.9140625 C5.625,5.16659903 6.88419914,3.75 8.4375,3.75 C9.99080086,3.75 11.25,5.16659903 11.25,6.9140625 C11.25,8.66152597 9.99080086,10.078125 8.4375,10.078125 Z M2.8125,13.59375 C2.81249999,12.890625 4.21875,10.78125 5.625,10.78125 C7.03125,10.78125 6.328125,11.484375 8.4375,11.484375 C10.546875,11.484375 9.84375,10.78125 11.25,10.78125 C12.65625,10.78125 14.0625,12.890625 14.0625,13.59375 C14.0625,14.296875 14.0625,15 13.359375,15 L3.515625,15 C2.8125,15 2.81250001,14.296875 2.8125,13.59375 Z" id="Combined-Shape" fill="#FF9300"></path>
        </g>
        <g id="bandeau" transform="translate(8.000000, 23.000000)">
            <rect id="Rectangle-12" fill="#297EF1" fill-rule="nonzero" x="0" y="0" width="24" height="8" rx="1"></rect>
            <text id="Beta" fill="#FFFFFF" font-family="Lato-Bold, Lato" font-size="6" font-weight="bold" line-spacing="7" letter-spacing="1.20000005">
                <tspan x="2.61299993" y="6.20000076">BET</tspan>
                <tspan x="17.1270001" y="6.20000076">A</tspan>
            </text>
        </g>
    </g>
</svg>