<svg xmlns="http://www.w3.org/2000/svg" width="32" height="28" viewBox="0 0 32 28">
    <g fill="none" fill-rule="evenodd" transform="translate(0 -4)">
        <path d="M0 0h32v32H0z"/>
        <path fill="#FFD799" fill-rule="nonzero" d="M32 25.995A1.997 1.997 0 0 1 30.002 28H24v-2.5c0-.828-.666-1.5-1.5-1.5-.828 0-1.5.679-1.5 1.5V28H11v-2.5c0-.828-.666-1.5-1.5-1.5-.828 0-1.5.679-1.5 1.5V28H1.998A2.001 2.001 0 0 1 0 25.995V6.005C0 4.898.89 4 2.002 4h27.996C31.104 4 32 4.897 32 6.005v19.99z"/>
        <path fill="#FF9300" fill-rule="nonzero" d="M17 9h6v1h-6V9zm0 3h11v1H17v-1zm0 3h11v1H17v-1zm0 3h11v1H17v-1zm-8-3.25c-1.657 0-3-1.511-3-3.375S7.343 8 9 8s3 1.511 3 3.375-1.343 3.375-3 3.375zM3 18.5c0-.75 1.5-3 3-3s.75.75 3 .75 1.5-.75 3-.75 3 2.25 3 3 0 1.5-.75 1.5H3.75C3 20 3 19.25 3 18.5z"/>
        <rect width="27" height="11" x="5" y="21" fill="#297EF1" rx="2"/>
        <path fill="#FFF" d="M6.773 30v-7h2.575c.484 0 .895.045 1.235.135.34.09.617.216.831.38.215.162.37.361.469.595.097.234.146.495.146.783 0 .157-.022.308-.067.454a1.336 1.336 0 0 1-.212.41c-.096.129-.219.245-.37.349-.15.104-.331.195-.542.271.46.113.802.294 1.023.546.221.251.331.574.331.968 0 .298-.057.575-.172.831-.116.256-.285.48-.507.67-.223.19-.498.34-.824.447-.327.107-.7.161-1.12.161H6.773zm1.624-2.97v1.745H9.54c.215 0 .39-.027.527-.082a.832.832 0 0 0 .319-.211.71.71 0 0 0 .159-.293 1.29 1.29 0 0 0 .043-.332c0-.128-.017-.243-.05-.346a.572.572 0 0 0-.174-.26.845.845 0 0 0-.324-.162 1.89 1.89 0 0 0-.51-.058H8.398zm0-1.085h.846c.179 0 .34-.013.485-.038.144-.026.266-.07.367-.135a.618.618 0 0 0 .231-.264.991.991 0 0 0 .08-.423c0-.166-.022-.305-.063-.415a.595.595 0 0 0-.192-.267.807.807 0 0 0-.33-.144 2.26 2.26 0 0 0-.473-.043h-.951v1.73zM17.583 23v1.25H14.71v1.633h2.2v1.2h-2.2v1.668h2.873V30h-4.507v-7h4.507zm6.006 0v1.288h-1.97V30h-1.624v-5.712h-1.97V23h5.564zm7.187 7h-1.259a.582.582 0 0 1-.348-.098.509.509 0 0 1-.19-.253l-.413-1.22h-2.662l-.413 1.22a.54.54 0 0 1-.187.243.54.54 0 0 1-.341.108h-1.269l2.71-7h1.662l2.71 7zm-4.497-2.676h1.912l-.644-1.917-.146-.43a10.933 10.933 0 0 1-.166-.536 9.548 9.548 0 0 1-.312.976l-.644 1.907z"/>
    </g>
</svg>
